<svg width="47" height="36" viewBox="0 0 47 36" fill="none" xmlns="http://www.w3.org/2000/svg">
<path d="M24.3129 17.6682L44.1254 1.42929C43.1421 0.691711 41.946 0.29261 40.7165 0.29261H5.7385C4.5095 0.29261 3.31296 0.691721 2.32959 1.42929L22.1532 17.6682C22.458 17.9175 22.8393 18.0535 23.2329 18.0535C23.6265 18.0535 24.0077 17.9176 24.3125 17.6682H24.3129Z" fill="#22B212"/>
<path d="M26.478 20.3052C25.5636 21.0543 24.4182 21.4637 23.2363 21.4637C22.0545 21.4637 20.909 21.0543 19.9947 20.3052L0.318256 4.17992C0.108991 4.77917 0.0011871 5.40892 0 6.04347V29.4984C0.00158534 31.0199 0.606793 32.4784 1.68244 33.5545C2.75844 34.6302 4.21696 35.2353 5.73858 35.237H40.7277C42.2492 35.2354 43.7077 34.6302 44.7838 33.5545C45.8595 32.4785 46.4646 31.02 46.4663 29.4984V6.04347C46.4651 5.40893 46.3573 4.77915 46.148 4.17992L26.478 20.3052Z" fill="#22B212"/>
</svg>
