<svg width="195" height="47" viewBox="0 0 195 47" fill="none" xmlns="http://www.w3.org/2000/svg">
<path d="M13.7578 3.85547L9.11719 18H5.37891L11.7188 0.9375H14.0977L13.7578 3.85547ZM17.6133 18L12.9609 3.85547L12.5859 0.9375H14.9883L21.3633 18H17.6133ZM17.4023 11.6484V14.4023H8.39062V11.6484H17.4023ZM26.2969 0V18H22.9102V0H26.2969ZM32.4609 7.75781V22.875H29.0859V5.32031H32.2148L32.4609 7.75781ZM40.4883 11.5195V11.7656C40.4883 12.6875 40.3789 13.543 40.1602 14.332C39.9492 15.1211 39.6367 15.8086 39.2227 16.3945C38.8086 16.9727 38.293 17.4258 37.6758 17.7539C37.0664 18.0742 36.3633 18.2344 35.5664 18.2344C34.793 18.2344 34.1211 18.0781 33.5508 17.7656C32.9805 17.4531 32.5 17.0156 32.1094 16.4531C31.7266 15.8828 31.418 15.2227 31.1836 14.4727C30.9492 13.7227 30.7695 12.918 30.6445 12.0586V11.4141C30.7695 10.4922 30.9492 9.64844 31.1836 8.88281C31.418 8.10938 31.7266 7.44141 32.1094 6.87891C32.5 6.30859 32.9766 5.86719 33.5391 5.55469C34.1094 5.24219 34.7773 5.08594 35.543 5.08594C36.3477 5.08594 37.0547 5.23828 37.6641 5.54297C38.2812 5.84766 38.7969 6.28516 39.2109 6.85547C39.6328 7.42578 39.9492 8.10547 40.1602 8.89453C40.3789 9.68359 40.4883 10.5586 40.4883 11.5195ZM37.1016 11.7656V11.5195C37.1016 10.9805 37.0547 10.4844 36.9609 10.0312C36.875 9.57031 36.7344 9.16797 36.5391 8.82422C36.3516 8.48047 36.1016 8.21484 35.7891 8.02734C35.4844 7.83203 35.1133 7.73438 34.6758 7.73438C34.2148 7.73438 33.8203 7.80859 33.4922 7.95703C33.1719 8.10547 32.9102 8.32031 32.707 8.60156C32.5039 8.88281 32.3516 9.21875 32.25 9.60938C32.1484 10 32.0859 10.4414 32.0625 10.9336V12.5625C32.1016 13.1406 32.2109 13.6602 32.3906 14.1211C32.5703 14.5742 32.8477 14.9336 33.2227 15.1992C33.5977 15.4648 34.0898 15.5977 34.6992 15.5977C35.1445 15.5977 35.5195 15.5 35.8242 15.3047C36.1289 15.1016 36.375 14.8242 36.5625 14.4727C36.7578 14.1211 36.8945 13.7148 36.9727 13.2539C37.0586 12.793 37.1016 12.2969 37.1016 11.7656ZM45.8789 0V18H42.5039V0H45.8789ZM45.3984 11.2148H44.4727C44.4805 10.332 44.5977 9.51953 44.8242 8.77734C45.0508 8.02734 45.375 7.37891 45.7969 6.83203C46.2188 6.27734 46.7227 5.84766 47.3086 5.54297C47.9023 5.23828 48.5586 5.08594 49.2773 5.08594C49.9023 5.08594 50.4688 5.17578 50.9766 5.35547C51.4922 5.52734 51.9336 5.80859 52.3008 6.19922C52.6758 6.58203 52.9648 7.08594 53.168 7.71094C53.3711 8.33594 53.4727 9.09375 53.4727 9.98438V18H50.0742V9.96094C50.0742 9.39844 49.9922 8.95703 49.8281 8.63672C49.6719 8.30859 49.4414 8.07812 49.1367 7.94531C48.8398 7.80469 48.4727 7.73438 48.0352 7.73438C47.5508 7.73438 47.1367 7.82422 46.793 8.00391C46.457 8.18359 46.1875 8.43359 45.9844 8.75391C45.7812 9.06641 45.6328 9.43359 45.5391 9.85547C45.4453 10.2773 45.3984 10.7305 45.3984 11.2148ZM62.8828 15.1406V9.49219C62.8828 9.08594 62.8164 8.73828 62.6836 8.44922C62.5508 8.15234 62.3438 7.92188 62.0625 7.75781C61.7891 7.59375 61.4336 7.51172 60.9961 7.51172C60.6211 7.51172 60.2969 7.57812 60.0234 7.71094C59.75 7.83594 59.5391 8.01953 59.3906 8.26172C59.2422 8.49609 59.168 8.77344 59.168 9.09375H55.793C55.793 8.55469 55.918 8.04297 56.168 7.55859C56.418 7.07422 56.7812 6.64844 57.2578 6.28125C57.7344 5.90625 58.3008 5.61328 58.957 5.40234C59.6211 5.19141 60.3633 5.08594 61.1836 5.08594C62.168 5.08594 63.043 5.25 63.8086 5.57812C64.5742 5.90625 65.1758 6.39844 65.6133 7.05469C66.0586 7.71094 66.2812 8.53125 66.2812 9.51562V14.9414C66.2812 15.6367 66.3242 16.207 66.4102 16.6523C66.4961 17.0898 66.6211 17.4727 66.7852 17.8008V18H63.375C63.2109 17.6562 63.0859 17.2266 63 16.7109C62.9219 16.1875 62.8828 15.6641 62.8828 15.1406ZM63.3281 10.2773L63.3516 12.1875H61.4648C61.0195 12.1875 60.6328 12.2383 60.3047 12.3398C59.9766 12.4414 59.707 12.5859 59.4961 12.7734C59.2852 12.9531 59.1289 13.1641 59.0273 13.4062C58.9336 13.6484 58.8867 13.9141 58.8867 14.2031C58.8867 14.4922 58.9531 14.7539 59.0859 14.9883C59.2188 15.2148 59.4102 15.3945 59.6602 15.5273C59.9102 15.6523 60.2031 15.7148 60.5391 15.7148C61.0469 15.7148 61.4883 15.6133 61.8633 15.4102C62.2383 15.207 62.5273 14.957 62.7305 14.6602C62.9414 14.3633 63.0508 14.082 63.0586 13.8164L63.9492 15.2461C63.8242 15.5664 63.6523 15.8984 63.4336 16.2422C63.2227 16.5859 62.9531 16.9102 62.625 17.2148C62.2969 17.5117 61.9023 17.7578 61.4414 17.9531C60.9805 18.1406 60.4336 18.2344 59.8008 18.2344C58.9961 18.2344 58.2656 18.0742 57.6094 17.7539C56.9609 17.4258 56.4453 16.9766 56.0625 16.4062C55.6875 15.8281 55.5 15.1719 55.5 14.4375C55.5 13.7734 55.625 13.1836 55.875 12.668C56.125 12.1523 56.4922 11.7188 56.9766 11.3672C57.4688 11.0078 58.082 10.7383 58.8164 10.5586C59.5508 10.3711 60.4023 10.2773 61.3711 10.2773H63.3281ZM88.957 0.9375V18H85.4414L78.5859 6.5625V18H75.0703V0.9375H78.5859L85.4531 12.3867V0.9375H88.957ZM98.6484 15.1406V9.49219C98.6484 9.08594 98.582 8.73828 98.4492 8.44922C98.3164 8.15234 98.1094 7.92188 97.8281 7.75781C97.5547 7.59375 97.1992 7.51172 96.7617 7.51172C96.3867 7.51172 96.0625 7.57812 95.7891 7.71094C95.5156 7.83594 95.3047 8.01953 95.1562 8.26172C95.0078 8.49609 94.9336 8.77344 94.9336 9.09375H91.5586C91.5586 8.55469 91.6836 8.04297 91.9336 7.55859C92.1836 7.07422 92.5469 6.64844 93.0234 6.28125C93.5 5.90625 94.0664 5.61328 94.7227 5.40234C95.3867 5.19141 96.1289 5.08594 96.9492 5.08594C97.9336 5.08594 98.8086 5.25 99.5742 5.57812C100.34 5.90625 100.941 6.39844 101.379 7.05469C101.824 7.71094 102.047 8.53125 102.047 9.51562V14.9414C102.047 15.6367 102.09 16.207 102.176 16.6523C102.262 17.0898 102.387 17.4727 102.551 17.8008V18H99.1406C98.9766 17.6562 98.8516 17.2266 98.7656 16.7109C98.6875 16.1875 98.6484 15.6641 98.6484 15.1406ZM99.0938 10.2773L99.1172 12.1875H97.2305C96.7852 12.1875 96.3984 12.2383 96.0703 12.3398C95.7422 12.4414 95.4727 12.5859 95.2617 12.7734C95.0508 12.9531 94.8945 13.1641 94.793 13.4062C94.6992 13.6484 94.6523 13.9141 94.6523 14.2031C94.6523 14.4922 94.7188 14.7539 94.8516 14.9883C94.9844 15.2148 95.1758 15.3945 95.4258 15.5273C95.6758 15.6523 95.9688 15.7148 96.3047 15.7148C96.8125 15.7148 97.2539 15.6133 97.6289 15.4102C98.0039 15.207 98.293 14.957 98.4961 14.6602C98.707 14.3633 98.8164 14.082 98.8242 13.8164L99.7148 15.2461C99.5898 15.5664 99.418 15.8984 99.1992 16.2422C98.9883 16.5859 98.7188 16.9102 98.3906 17.2148C98.0625 17.5117 97.668 17.7578 97.207 17.9531C96.7461 18.1406 96.1992 18.2344 95.5664 18.2344C94.7617 18.2344 94.0312 18.0742 93.375 17.7539C92.7266 17.4258 92.2109 16.9766 91.8281 16.4062C91.4531 15.8281 91.2656 15.1719 91.2656 14.4375C91.2656 13.7734 91.3906 13.1836 91.6406 12.668C91.8906 12.1523 92.2578 11.7188 92.7422 11.3672C93.2344 11.0078 93.8477 10.7383 94.582 10.5586C95.3164 10.3711 96.168 10.2773 97.1367 10.2773H99.0938ZM108.773 15.5391L111.586 5.32031H115.113L110.836 18H108.703L108.773 15.5391ZM106.84 5.32031L109.664 15.5508L109.723 18H107.578L103.301 5.32031H106.84ZM120.188 5.32031V18H116.801V5.32031H120.188ZM116.59 2.01562C116.59 1.52344 116.762 1.11719 117.105 0.796875C117.449 0.476563 117.91 0.316406 118.488 0.316406C119.059 0.316406 119.516 0.476563 119.859 0.796875C120.211 1.11719 120.387 1.52344 120.387 2.01562C120.387 2.50781 120.211 2.91406 119.859 3.23438C119.516 3.55469 119.059 3.71484 118.488 3.71484C117.91 3.71484 117.449 3.55469 117.105 3.23438C116.762 2.91406 116.59 2.50781 116.59 2.01562ZM131.004 5.32031H134.062V17.5781C134.062 18.7344 133.805 19.7148 133.289 20.5195C132.781 21.332 132.07 21.9453 131.156 22.3594C130.242 22.7812 129.18 22.9922 127.969 22.9922C127.438 22.9922 126.875 22.9219 126.281 22.7812C125.695 22.6406 125.133 22.4219 124.594 22.125C124.062 21.8281 123.617 21.4531 123.258 21L124.746 19.0078C125.137 19.4609 125.59 19.8125 126.105 20.0625C126.621 20.3203 127.191 20.4492 127.816 20.4492C128.426 20.4492 128.941 20.3359 129.363 20.1094C129.785 19.8906 130.109 19.5664 130.336 19.1367C130.562 18.7148 130.676 18.2031 130.676 17.6016V8.25L131.004 5.32031ZM122.473 11.8125V11.5664C122.473 10.5977 122.59 9.71875 122.824 8.92969C123.066 8.13281 123.406 7.44922 123.844 6.87891C124.289 6.30859 124.828 5.86719 125.461 5.55469C126.094 5.24219 126.809 5.08594 127.605 5.08594C128.449 5.08594 129.156 5.24219 129.727 5.55469C130.297 5.86719 130.766 6.3125 131.133 6.89062C131.5 7.46094 131.785 8.13672 131.988 8.91797C132.199 9.69141 132.363 10.5391 132.48 11.4609V12C132.363 12.8828 132.188 13.7031 131.953 14.4609C131.719 15.2188 131.41 15.8828 131.027 16.4531C130.645 17.0156 130.168 17.4531 129.598 17.7656C129.035 18.0781 128.363 18.2344 127.582 18.2344C126.801 18.2344 126.094 18.0742 125.461 17.7539C124.836 17.4336 124.301 16.9844 123.855 16.4062C123.41 15.8281 123.066 15.1484 122.824 14.3672C122.59 13.5859 122.473 12.7344 122.473 11.8125ZM125.848 11.5664V11.8125C125.848 12.3359 125.898 12.8242 126 13.2773C126.102 13.7305 126.258 14.1328 126.469 14.4844C126.688 14.8281 126.957 15.0977 127.277 15.293C127.605 15.4805 127.992 15.5742 128.438 15.5742C129.055 15.5742 129.559 15.4453 129.949 15.1875C130.34 14.9219 130.633 14.5586 130.828 14.0977C131.023 13.6367 131.137 13.1055 131.168 12.5039V10.9688C131.152 10.4766 131.086 10.0352 130.969 9.64453C130.852 9.24609 130.688 8.90625 130.477 8.625C130.266 8.34375 129.992 8.125 129.656 7.96875C129.32 7.8125 128.922 7.73438 128.461 7.73438C128.016 7.73438 127.629 7.83594 127.301 8.03906C126.98 8.23438 126.711 8.50391 126.492 8.84766C126.281 9.19141 126.121 9.59766 126.012 10.0664C125.902 10.5273 125.848 11.0273 125.848 11.5664ZM143.531 15.1406V9.49219C143.531 9.08594 143.465 8.73828 143.332 8.44922C143.199 8.15234 142.992 7.92188 142.711 7.75781C142.438 7.59375 142.082 7.51172 141.645 7.51172C141.27 7.51172 140.945 7.57812 140.672 7.71094C140.398 7.83594 140.188 8.01953 140.039 8.26172C139.891 8.49609 139.816 8.77344 139.816 9.09375H136.441C136.441 8.55469 136.566 8.04297 136.816 7.55859C137.066 7.07422 137.43 6.64844 137.906 6.28125C138.383 5.90625 138.949 5.61328 139.605 5.40234C140.27 5.19141 141.012 5.08594 141.832 5.08594C142.816 5.08594 143.691 5.25 144.457 5.57812C145.223 5.90625 145.824 6.39844 146.262 7.05469C146.707 7.71094 146.93 8.53125 146.93 9.51562V14.9414C146.93 15.6367 146.973 16.207 147.059 16.6523C147.145 17.0898 147.27 17.4727 147.434 17.8008V18H144.023C143.859 17.6562 143.734 17.2266 143.648 16.7109C143.57 16.1875 143.531 15.6641 143.531 15.1406ZM143.977 10.2773L144 12.1875H142.113C141.668 12.1875 141.281 12.2383 140.953 12.3398C140.625 12.4414 140.355 12.5859 140.145 12.7734C139.934 12.9531 139.777 13.1641 139.676 13.4062C139.582 13.6484 139.535 13.9141 139.535 14.2031C139.535 14.4922 139.602 14.7539 139.734 14.9883C139.867 15.2148 140.059 15.3945 140.309 15.5273C140.559 15.6523 140.852 15.7148 141.188 15.7148C141.695 15.7148 142.137 15.6133 142.512 15.4102C142.887 15.207 143.176 14.957 143.379 14.6602C143.59 14.3633 143.699 14.082 143.707 13.8164L144.598 15.2461C144.473 15.5664 144.301 15.8984 144.082 16.2422C143.871 16.5859 143.602 16.9102 143.273 17.2148C142.945 17.5117 142.551 17.7578 142.09 17.9531C141.629 18.1406 141.082 18.2344 140.449 18.2344C139.645 18.2344 138.914 18.0742 138.258 17.7539C137.609 17.4258 137.094 16.9766 136.711 16.4062C136.336 15.8281 136.148 15.1719 136.148 14.4375C136.148 13.7734 136.273 13.1836 136.523 12.668C136.773 12.1523 137.141 11.7188 137.625 11.3672C138.117 11.0078 138.73 10.7383 139.465 10.5586C140.199 10.3711 141.051 10.2773 142.02 10.2773H143.977ZM155.742 5.32031V7.71094H148.359V5.32031H155.742ZM150.188 2.19141H153.562V14.1797C153.562 14.5469 153.609 14.8281 153.703 15.0234C153.805 15.2188 153.953 15.3555 154.148 15.4336C154.344 15.5039 154.59 15.5391 154.887 15.5391C155.098 15.5391 155.285 15.5312 155.449 15.5156C155.621 15.4922 155.766 15.4688 155.883 15.4453L155.895 17.9297C155.605 18.0234 155.293 18.0977 154.957 18.1523C154.621 18.207 154.25 18.2344 153.844 18.2344C153.102 18.2344 152.453 18.1133 151.898 17.8711C151.352 17.6211 150.93 17.2227 150.633 16.6758C150.336 16.1289 150.188 15.4102 150.188 14.5195V2.19141ZM161.227 5.32031V18H157.84V5.32031H161.227ZM157.629 2.01562C157.629 1.52344 157.801 1.11719 158.145 0.796875C158.488 0.476563 158.949 0.316406 159.527 0.316406C160.098 0.316406 160.555 0.476563 160.898 0.796875C161.25 1.11719 161.426 1.52344 161.426 2.01562C161.426 2.50781 161.25 2.91406 160.898 3.23438C160.555 3.55469 160.098 3.71484 159.527 3.71484C158.949 3.71484 158.488 3.55469 158.145 3.23438C157.801 2.91406 157.629 2.50781 157.629 2.01562ZM163.477 11.7891V11.543C163.477 10.6133 163.609 9.75781 163.875 8.97656C164.141 8.1875 164.527 7.50391 165.035 6.92578C165.543 6.34766 166.168 5.89844 166.91 5.57812C167.652 5.25 168.504 5.08594 169.465 5.08594C170.426 5.08594 171.281 5.25 172.031 5.57812C172.781 5.89844 173.41 6.34766 173.918 6.92578C174.434 7.50391 174.824 8.1875 175.09 8.97656C175.355 9.75781 175.488 10.6133 175.488 11.543V11.7891C175.488 12.7109 175.355 13.5664 175.09 14.3555C174.824 15.1367 174.434 15.8203 173.918 16.4062C173.41 16.9844 172.785 17.4336 172.043 17.7539C171.301 18.0742 170.449 18.2344 169.488 18.2344C168.527 18.2344 167.672 18.0742 166.922 17.7539C166.18 17.4336 165.551 16.9844 165.035 16.4062C164.527 15.8203 164.141 15.1367 163.875 14.3555C163.609 13.5664 163.477 12.7109 163.477 11.7891ZM166.852 11.543V11.7891C166.852 12.3203 166.898 12.8164 166.992 13.2773C167.086 13.7383 167.234 14.1445 167.438 14.4961C167.648 14.8398 167.922 15.1094 168.258 15.3047C168.594 15.5 169.004 15.5977 169.488 15.5977C169.957 15.5977 170.359 15.5 170.695 15.3047C171.031 15.1094 171.301 14.8398 171.504 14.4961C171.707 14.1445 171.855 13.7383 171.949 13.2773C172.051 12.8164 172.102 12.3203 172.102 11.7891V11.543C172.102 11.0273 172.051 10.543 171.949 10.0898C171.855 9.62891 171.703 9.22266 171.492 8.87109C171.289 8.51172 171.02 8.23047 170.684 8.02734C170.348 7.82422 169.941 7.72266 169.465 7.72266C168.988 7.72266 168.582 7.82422 168.246 8.02734C167.918 8.23047 167.648 8.51172 167.438 8.87109C167.234 9.22266 167.086 9.62891 166.992 10.0898C166.898 10.543 166.852 11.0273 166.852 11.543ZM180.867 8.02734V18H177.492V5.32031H180.656L180.867 8.02734ZM180.375 11.2148H179.461C179.461 10.2773 179.582 9.43359 179.824 8.68359C180.066 7.92578 180.406 7.28125 180.844 6.75C181.281 6.21094 181.801 5.80078 182.402 5.51953C183.012 5.23047 183.691 5.08594 184.441 5.08594C185.035 5.08594 185.578 5.17188 186.07 5.34375C186.562 5.51562 186.984 5.78906 187.336 6.16406C187.695 6.53906 187.969 7.03516 188.156 7.65234C188.352 8.26953 188.449 9.02344 188.449 9.91406V18H185.051V9.90234C185.051 9.33984 184.973 8.90234 184.816 8.58984C184.66 8.27734 184.43 8.05859 184.125 7.93359C183.828 7.80078 183.461 7.73438 183.023 7.73438C182.57 7.73438 182.176 7.82422 181.84 8.00391C181.512 8.18359 181.238 8.43359 181.02 8.75391C180.809 9.06641 180.648 9.43359 180.539 9.85547C180.43 10.2773 180.375 10.7305 180.375 11.2148Z" fill="#100CAA"/>
<path d="M2.48438 28.9375H5.46094L9.84375 41.4648L14.2266 28.9375H17.2031L11.0391 46H8.64844L2.48438 28.9375ZM0.878906 28.9375H3.84375L4.38281 41.1484V46H0.878906V28.9375ZM15.8438 28.9375H18.8203V46H15.3047V41.1484L15.8438 28.9375ZM28.5352 43.1406V37.4922C28.5352 37.0859 28.4688 36.7383 28.3359 36.4492C28.2031 36.1523 27.9961 35.9219 27.7148 35.7578C27.4414 35.5938 27.0859 35.5117 26.6484 35.5117C26.2734 35.5117 25.9492 35.5781 25.6758 35.7109C25.4023 35.8359 25.1914 36.0195 25.043 36.2617C24.8945 36.4961 24.8203 36.7734 24.8203 37.0938H21.4453C21.4453 36.5547 21.5703 36.043 21.8203 35.5586C22.0703 35.0742 22.4336 34.6484 22.9102 34.2812C23.3867 33.9062 23.9531 33.6133 24.6094 33.4023C25.2734 33.1914 26.0156 33.0859 26.8359 33.0859C27.8203 33.0859 28.6953 33.25 29.4609 33.5781C30.2266 33.9062 30.8281 34.3984 31.2656 35.0547C31.7109 35.7109 31.9336 36.5312 31.9336 37.5156V42.9414C31.9336 43.6367 31.9766 44.207 32.0625 44.6523C32.1484 45.0898 32.2734 45.4727 32.4375 45.8008V46H29.0273C28.8633 45.6562 28.7383 45.2266 28.6523 44.7109C28.5742 44.1875 28.5352 43.6641 28.5352 43.1406ZM28.9805 38.2773L29.0039 40.1875H27.1172C26.6719 40.1875 26.2852 40.2383 25.957 40.3398C25.6289 40.4414 25.3594 40.5859 25.1484 40.7734C24.9375 40.9531 24.7812 41.1641 24.6797 41.4062C24.5859 41.6484 24.5391 41.9141 24.5391 42.2031C24.5391 42.4922 24.6055 42.7539 24.7383 42.9883C24.8711 43.2148 25.0625 43.3945 25.3125 43.5273C25.5625 43.6523 25.8555 43.7148 26.1914 43.7148C26.6992 43.7148 27.1406 43.6133 27.5156 43.4102C27.8906 43.207 28.1797 42.957 28.3828 42.6602C28.5938 42.3633 28.7031 42.082 28.7109 41.8164L29.6016 43.2461C29.4766 43.5664 29.3047 43.8984 29.0859 44.2422C28.875 44.5859 28.6055 44.9102 28.2773 45.2148C27.9492 45.5117 27.5547 45.7578 27.0938 45.9531C26.6328 46.1406 26.0859 46.2344 25.4531 46.2344C24.6484 46.2344 23.918 46.0742 23.2617 45.7539C22.6133 45.4258 22.0977 44.9766 21.7148 44.4062C21.3398 43.8281 21.1523 43.1719 21.1523 42.4375C21.1523 41.7734 21.2773 41.1836 21.5273 40.668C21.7773 40.1523 22.1445 39.7188 22.6289 39.3672C23.1211 39.0078 23.7344 38.7383 24.4688 38.5586C25.2031 38.3711 26.0547 38.2773 27.0234 38.2773H28.9805ZM37.9102 36.0859V46H34.5352V33.3203H37.7109L37.9102 36.0859ZM41.7305 33.2383L41.6719 36.3672C41.5078 36.3438 41.3086 36.3242 41.0742 36.3086C40.8477 36.2852 40.6406 36.2734 40.4531 36.2734C39.9766 36.2734 39.5625 36.3359 39.2109 36.4609C38.8672 36.5781 38.5781 36.7539 38.3438 36.9883C38.1172 37.2227 37.9453 37.5078 37.8281 37.8438C37.7188 38.1797 37.6562 38.5625 37.6406 38.9922L36.9609 38.7812C36.9609 37.9609 37.043 37.207 37.207 36.5195C37.3711 35.8242 37.6094 35.2188 37.9219 34.7031C38.2422 34.1875 38.6328 33.7891 39.0938 33.5078C39.5547 33.2266 40.082 33.0859 40.6758 33.0859C40.8633 33.0859 41.0547 33.1016 41.25 33.1328C41.4453 33.1562 41.6055 33.1914 41.7305 33.2383ZM46.8867 33.3203V46H43.5V33.3203H46.8867ZM43.2891 30.0156C43.2891 29.5234 43.4609 29.1172 43.8047 28.7969C44.1484 28.4766 44.6094 28.3164 45.1875 28.3164C45.7578 28.3164 46.2148 28.4766 46.5586 28.7969C46.9102 29.1172 47.0859 29.5234 47.0859 30.0156C47.0859 30.5078 46.9102 30.9141 46.5586 31.2344C46.2148 31.5547 45.7578 31.7148 45.1875 31.7148C44.6094 31.7148 44.1484 31.5547 43.8047 31.2344C43.4609 30.9141 43.2891 30.5078 43.2891 30.0156ZM55.8867 33.3203V35.7109H48.5039V33.3203H55.8867ZM50.332 30.1914H53.707V42.1797C53.707 42.5469 53.7539 42.8281 53.8477 43.0234C53.9492 43.2188 54.0977 43.3555 54.293 43.4336C54.4883 43.5039 54.7344 43.5391 55.0312 43.5391C55.2422 43.5391 55.4297 43.5312 55.5938 43.5156C55.7656 43.4922 55.9102 43.4688 56.0273 43.4453L56.0391 45.9297C55.75 46.0234 55.4375 46.0977 55.1016 46.1523C54.7656 46.207 54.3945 46.2344 53.9883 46.2344C53.2461 46.2344 52.5977 46.1133 52.043 45.8711C51.4961 45.6211 51.0742 45.2227 50.7773 44.6758C50.4805 44.1289 50.332 43.4102 50.332 42.5195V30.1914ZM61.3711 33.3203V46H57.9844V33.3203H61.3711ZM57.7734 30.0156C57.7734 29.5234 57.9453 29.1172 58.2891 28.7969C58.6328 28.4766 59.0938 28.3164 59.6719 28.3164C60.2422 28.3164 60.6992 28.4766 61.043 28.7969C61.3945 29.1172 61.5703 29.5234 61.5703 30.0156C61.5703 30.5078 61.3945 30.9141 61.043 31.2344C60.6992 31.5547 60.2422 31.7148 59.6719 31.7148C59.0938 31.7148 58.6328 31.5547 58.2891 31.2344C57.9453 30.9141 57.7734 30.5078 57.7734 30.0156ZM67.5352 35.9453V46H64.1484V33.3203H67.3242L67.5352 35.9453ZM67.0664 39.2148H66.1289C66.1289 38.332 66.2344 37.5195 66.4453 36.7773C66.6641 36.0273 66.9805 35.3789 67.3945 34.832C67.8164 34.2773 68.3359 33.8477 68.9531 33.543C69.5703 33.2383 70.2852 33.0859 71.0977 33.0859C71.6602 33.0859 72.1758 33.1719 72.6445 33.3438C73.1133 33.5078 73.5156 33.7695 73.8516 34.1289C74.1953 34.4805 74.4609 34.9414 74.6484 35.5117C74.8359 36.0742 74.9297 36.75 74.9297 37.5391V46H71.5547V37.9141C71.5547 37.3359 71.4766 36.8906 71.3203 36.5781C71.1641 36.2656 70.9414 36.0469 70.6523 35.9219C70.3711 35.7969 70.0312 35.7344 69.6328 35.7344C69.1953 35.7344 68.8125 35.8242 68.4844 36.0039C68.1641 36.1836 67.8984 36.4336 67.6875 36.7539C67.4766 37.0664 67.3203 37.4336 67.2188 37.8555C67.1172 38.2773 67.0664 38.7305 67.0664 39.2148ZM74.6133 38.8281L73.4062 38.9805C73.4062 38.1523 73.5078 37.3828 73.7109 36.6719C73.9219 35.9609 74.2305 35.3359 74.6367 34.7969C75.0508 34.2578 75.5625 33.8398 76.1719 33.543C76.7812 33.2383 77.4844 33.0859 78.2812 33.0859C78.8906 33.0859 79.4453 33.1758 79.9453 33.3555C80.4453 33.5273 80.8711 33.8047 81.2227 34.1875C81.582 34.5625 81.8555 35.0547 82.043 35.6641C82.2383 36.2734 82.3359 37.0195 82.3359 37.9023V46H78.9492V37.9023C78.9492 37.3164 78.8711 36.8711 78.7148 36.5664C78.5664 36.2539 78.3477 36.0391 78.0586 35.9219C77.7773 35.7969 77.4414 35.7344 77.0508 35.7344C76.6445 35.7344 76.2891 35.8164 75.9844 35.9805C75.6797 36.1367 75.4258 36.3555 75.2227 36.6367C75.0195 36.918 74.8672 37.2461 74.7656 37.6211C74.6641 37.9883 74.6133 38.3906 74.6133 38.8281ZM90.7852 46.2344C89.8008 46.2344 88.918 46.0781 88.1367 45.7656C87.3555 45.4453 86.6914 45.0039 86.1445 44.4414C85.6055 43.8789 85.1914 43.2266 84.9023 42.4844C84.6133 41.7344 84.4688 40.9375 84.4688 40.0938V39.625C84.4688 38.6641 84.6055 37.7852 84.8789 36.9883C85.1523 36.1914 85.543 35.5 86.0508 34.9141C86.5664 34.3281 87.1914 33.8789 87.9258 33.5664C88.6602 33.2461 89.4883 33.0859 90.4102 33.0859C91.3086 33.0859 92.1055 33.2344 92.8008 33.5312C93.4961 33.8281 94.0781 34.25 94.5469 34.7969C95.0234 35.3438 95.3828 36 95.625 36.7656C95.8672 37.5234 95.9883 38.3672 95.9883 39.2969V40.7031H85.9102V38.4531H92.6719V38.1953C92.6719 37.7266 92.5859 37.3086 92.4141 36.9414C92.25 36.5664 92 36.2695 91.6641 36.0508C91.3281 35.832 90.8984 35.7227 90.375 35.7227C89.9297 35.7227 89.5469 35.8203 89.2266 36.0156C88.9062 36.2109 88.6445 36.4844 88.4414 36.8359C88.2461 37.1875 88.0977 37.6016 87.9961 38.0781C87.9023 38.5469 87.8555 39.0625 87.8555 39.625V40.0938C87.8555 40.6016 87.9258 41.0703 88.0664 41.5C88.2148 41.9297 88.4219 42.3008 88.6875 42.6133C88.9609 42.9258 89.2891 43.168 89.6719 43.3398C90.0625 43.5117 90.5039 43.5977 90.9961 43.5977C91.6055 43.5977 92.1719 43.4805 92.6953 43.2461C93.2266 43.0039 93.6836 42.6406 94.0664 42.1562L95.707 43.9375C95.4414 44.3203 95.0781 44.6875 94.6172 45.0391C94.1641 45.3906 93.6172 45.6797 92.9766 45.9062C92.3359 46.125 91.6055 46.2344 90.7852 46.2344ZM112.98 41.5352C112.98 41.2305 112.934 40.957 112.84 40.7148C112.754 40.4648 112.59 40.2383 112.348 40.0352C112.105 39.8242 111.766 39.6172 111.328 39.4141C110.891 39.2109 110.324 39 109.629 38.7812C108.855 38.5312 108.121 38.25 107.426 37.9375C106.738 37.625 106.129 37.2617 105.598 36.8477C105.074 36.4258 104.66 35.9375 104.355 35.3828C104.059 34.8281 103.91 34.1836 103.91 33.4492C103.91 32.7383 104.066 32.0938 104.379 31.5156C104.691 30.9297 105.129 30.4297 105.691 30.0156C106.254 29.5938 106.918 29.2695 107.684 29.043C108.457 28.8164 109.305 28.7031 110.227 28.7031C111.484 28.7031 112.582 28.9297 113.52 29.3828C114.457 29.8359 115.184 30.457 115.699 31.2461C116.223 32.0352 116.484 32.9375 116.484 33.9531H112.992C112.992 33.4531 112.887 33.0156 112.676 32.6406C112.473 32.2578 112.16 31.957 111.738 31.7383C111.324 31.5195 110.801 31.4102 110.168 31.4102C109.559 31.4102 109.051 31.5039 108.645 31.6914C108.238 31.8711 107.934 32.1172 107.73 32.4297C107.527 32.7344 107.426 33.0781 107.426 33.4609C107.426 33.75 107.496 34.0117 107.637 34.2461C107.785 34.4805 108.004 34.6992 108.293 34.9023C108.582 35.1055 108.938 35.2969 109.359 35.4766C109.781 35.6562 110.27 35.832 110.824 36.0039C111.754 36.2852 112.57 36.6016 113.273 36.9531C113.984 37.3047 114.578 37.6992 115.055 38.1367C115.531 38.5742 115.891 39.0703 116.133 39.625C116.375 40.1797 116.496 40.8086 116.496 41.5117C116.496 42.2539 116.352 42.918 116.062 43.5039C115.773 44.0898 115.355 44.5859 114.809 44.9922C114.262 45.3984 113.609 45.707 112.852 45.918C112.094 46.1289 111.246 46.2344 110.309 46.2344C109.465 46.2344 108.633 46.125 107.812 45.9062C106.992 45.6797 106.246 45.3398 105.574 44.8867C104.91 44.4336 104.379 43.8555 103.98 43.1523C103.582 42.4492 103.383 41.6172 103.383 40.6562H106.91C106.91 41.1875 106.992 41.6367 107.156 42.0039C107.32 42.3711 107.551 42.668 107.848 42.8945C108.152 43.1211 108.512 43.2852 108.926 43.3867C109.348 43.4883 109.809 43.5391 110.309 43.5391C110.918 43.5391 111.418 43.4531 111.809 43.2812C112.207 43.1094 112.5 42.8711 112.688 42.5664C112.883 42.2617 112.98 41.918 112.98 41.5352ZM124.512 46.2344C123.527 46.2344 122.645 46.0781 121.863 45.7656C121.082 45.4453 120.418 45.0039 119.871 44.4414C119.332 43.8789 118.918 43.2266 118.629 42.4844C118.34 41.7344 118.195 40.9375 118.195 40.0938V39.625C118.195 38.6641 118.332 37.7852 118.605 36.9883C118.879 36.1914 119.27 35.5 119.777 34.9141C120.293 34.3281 120.918 33.8789 121.652 33.5664C122.387 33.2461 123.215 33.0859 124.137 33.0859C125.035 33.0859 125.832 33.2344 126.527 33.5312C127.223 33.8281 127.805 34.25 128.273 34.7969C128.75 35.3438 129.109 36 129.352 36.7656C129.594 37.5234 129.715 38.3672 129.715 39.2969V40.7031H119.637V38.4531H126.398V38.1953C126.398 37.7266 126.312 37.3086 126.141 36.9414C125.977 36.5664 125.727 36.2695 125.391 36.0508C125.055 35.832 124.625 35.7227 124.102 35.7227C123.656 35.7227 123.273 35.8203 122.953 36.0156C122.633 36.2109 122.371 36.4844 122.168 36.8359C121.973 37.1875 121.824 37.6016 121.723 38.0781C121.629 38.5469 121.582 39.0625 121.582 39.625V40.0938C121.582 40.6016 121.652 41.0703 121.793 41.5C121.941 41.9297 122.148 42.3008 122.414 42.6133C122.688 42.9258 123.016 43.168 123.398 43.3398C123.789 43.5117 124.23 43.5977 124.723 43.5977C125.332 43.5977 125.898 43.4805 126.422 43.2461C126.953 43.0039 127.41 42.6406 127.793 42.1562L129.434 43.9375C129.168 44.3203 128.805 44.6875 128.344 45.0391C127.891 45.3906 127.344 45.6797 126.703 45.9062C126.062 46.125 125.332 46.2344 124.512 46.2344ZM135.012 36.0859V46H131.637V33.3203H134.812L135.012 36.0859ZM138.832 33.2383L138.773 36.3672C138.609 36.3438 138.41 36.3242 138.176 36.3086C137.949 36.2852 137.742 36.2734 137.555 36.2734C137.078 36.2734 136.664 36.3359 136.312 36.4609C135.969 36.5781 135.68 36.7539 135.445 36.9883C135.219 37.2227 135.047 37.5078 134.93 37.8438C134.82 38.1797 134.758 38.5625 134.742 38.9922L134.062 38.7812C134.062 37.9609 134.145 37.207 134.309 36.5195C134.473 35.8242 134.711 35.2188 135.023 34.7031C135.344 34.1875 135.734 33.7891 136.195 33.5078C136.656 33.2266 137.184 33.0859 137.777 33.0859C137.965 33.0859 138.156 33.1016 138.352 33.1328C138.547 33.1562 138.707 33.1914 138.832 33.2383ZM144.949 43.5391L147.762 33.3203H151.289L147.012 46H144.879L144.949 43.5391ZM143.016 33.3203L145.84 43.5508L145.898 46H143.754L139.477 33.3203H143.016ZM156.363 33.3203V46H152.977V33.3203H156.363ZM152.766 30.0156C152.766 29.5234 152.938 29.1172 153.281 28.7969C153.625 28.4766 154.086 28.3164 154.664 28.3164C155.234 28.3164 155.691 28.4766 156.035 28.7969C156.387 29.1172 156.562 29.5234 156.562 30.0156C156.562 30.5078 156.387 30.9141 156.035 31.2344C155.691 31.5547 155.234 31.7148 154.664 31.7148C154.086 31.7148 153.625 31.5547 153.281 31.2344C152.938 30.9141 152.766 30.5078 152.766 30.0156ZM164.391 43.5977C164.805 43.5977 165.172 43.5195 165.492 43.3633C165.812 43.1992 166.062 42.9727 166.242 42.6836C166.43 42.3867 166.527 42.0391 166.535 41.6406H169.711C169.703 42.5312 169.465 43.3242 168.996 44.0195C168.527 44.707 167.898 45.25 167.109 45.6484C166.32 46.0391 165.438 46.2344 164.461 46.2344C163.477 46.2344 162.617 46.0703 161.883 45.7422C161.156 45.4141 160.551 44.9609 160.066 44.3828C159.582 43.7969 159.219 43.1172 158.977 42.3438C158.734 41.5625 158.613 40.7266 158.613 39.8359V39.4961C158.613 38.5977 158.734 37.7617 158.977 36.9883C159.219 36.207 159.582 35.5273 160.066 34.9492C160.551 34.3633 161.156 33.9062 161.883 33.5781C162.609 33.25 163.461 33.0859 164.438 33.0859C165.477 33.0859 166.387 33.2852 167.168 33.6836C167.957 34.082 168.574 34.6523 169.02 35.3945C169.473 36.1289 169.703 37 169.711 38.0078H166.535C166.527 37.5859 166.438 37.2031 166.266 36.8594C166.102 36.5156 165.859 36.2422 165.539 36.0391C165.227 35.8281 164.84 35.7227 164.379 35.7227C163.887 35.7227 163.484 35.8281 163.172 36.0391C162.859 36.2422 162.617 36.5234 162.445 36.8828C162.273 37.2344 162.152 37.6367 162.082 38.0898C162.02 38.5352 161.988 39.0039 161.988 39.4961V39.8359C161.988 40.3281 162.02 40.8008 162.082 41.2539C162.145 41.707 162.262 42.1094 162.434 42.4609C162.613 42.8125 162.859 43.0898 163.172 43.293C163.484 43.4961 163.891 43.5977 164.391 43.5977ZM177.504 46.2344C176.52 46.2344 175.637 46.0781 174.855 45.7656C174.074 45.4453 173.41 45.0039 172.863 44.4414C172.324 43.8789 171.91 43.2266 171.621 42.4844C171.332 41.7344 171.188 40.9375 171.188 40.0938V39.625C171.188 38.6641 171.324 37.7852 171.598 36.9883C171.871 36.1914 172.262 35.5 172.77 34.9141C173.285 34.3281 173.91 33.8789 174.645 33.5664C175.379 33.2461 176.207 33.0859 177.129 33.0859C178.027 33.0859 178.824 33.2344 179.52 33.5312C180.215 33.8281 180.797 34.25 181.266 34.7969C181.742 35.3438 182.102 36 182.344 36.7656C182.586 37.5234 182.707 38.3672 182.707 39.2969V40.7031H172.629V38.4531H179.391V38.1953C179.391 37.7266 179.305 37.3086 179.133 36.9414C178.969 36.5664 178.719 36.2695 178.383 36.0508C178.047 35.832 177.617 35.7227 177.094 35.7227C176.648 35.7227 176.266 35.8203 175.945 36.0156C175.625 36.2109 175.363 36.4844 175.16 36.8359C174.965 37.1875 174.816 37.6016 174.715 38.0781C174.621 38.5469 174.574 39.0625 174.574 39.625V40.0938C174.574 40.6016 174.645 41.0703 174.785 41.5C174.934 41.9297 175.141 42.3008 175.406 42.6133C175.68 42.9258 176.008 43.168 176.391 43.3398C176.781 43.5117 177.223 43.5977 177.715 43.5977C178.324 43.5977 178.891 43.4805 179.414 43.2461C179.945 43.0039 180.402 42.6406 180.785 42.1562L182.426 43.9375C182.16 44.3203 181.797 44.6875 181.336 45.0391C180.883 45.3906 180.336 45.6797 179.695 45.9062C179.055 46.125 178.324 46.2344 177.504 46.2344ZM191.484 42.4961C191.484 42.2539 191.414 42.0352 191.273 41.8398C191.133 41.6445 190.871 41.4648 190.488 41.3008C190.113 41.1289 189.57 40.9727 188.859 40.832C188.219 40.6914 187.621 40.5156 187.066 40.3047C186.52 40.0859 186.043 39.8242 185.637 39.5195C185.238 39.2148 184.926 38.8555 184.699 38.4414C184.473 38.0195 184.359 37.5391 184.359 37C184.359 36.4688 184.473 35.9688 184.699 35.5C184.934 35.0312 185.266 34.6172 185.695 34.2578C186.133 33.8906 186.664 33.6055 187.289 33.4023C187.922 33.1914 188.633 33.0859 189.422 33.0859C190.523 33.0859 191.469 33.2617 192.258 33.6133C193.055 33.9648 193.664 34.4492 194.086 35.0664C194.516 35.6758 194.73 36.3711 194.73 37.1523H191.355C191.355 36.8242 191.285 36.5312 191.145 36.2734C191.012 36.0078 190.801 35.8008 190.512 35.6523C190.23 35.4961 189.863 35.418 189.41 35.418C189.035 35.418 188.711 35.4844 188.438 35.6172C188.164 35.7422 187.953 35.9141 187.805 36.1328C187.664 36.3438 187.594 36.5781 187.594 36.8359C187.594 37.0312 187.633 37.207 187.711 37.3633C187.797 37.5117 187.934 37.6484 188.121 37.7734C188.309 37.8984 188.551 38.0156 188.848 38.125C189.152 38.2266 189.527 38.3203 189.973 38.4062C190.887 38.5938 191.703 38.8398 192.422 39.1445C193.141 39.4414 193.711 39.8477 194.133 40.3633C194.555 40.8711 194.766 41.5391 194.766 42.3672C194.766 42.9297 194.641 43.4453 194.391 43.9141C194.141 44.3828 193.781 44.793 193.312 45.1445C192.844 45.4883 192.281 45.7578 191.625 45.9531C190.977 46.1406 190.246 46.2344 189.434 46.2344C188.254 46.2344 187.254 46.0234 186.434 45.6016C185.621 45.1797 185.004 44.6445 184.582 43.9961C184.168 43.3398 183.961 42.668 183.961 41.9805H187.16C187.176 42.4414 187.293 42.8125 187.512 43.0938C187.738 43.375 188.023 43.5781 188.367 43.7031C188.719 43.8281 189.098 43.8906 189.504 43.8906C189.941 43.8906 190.305 43.832 190.594 43.7148C190.883 43.5898 191.102 43.4258 191.25 43.2227C191.406 43.0117 191.484 42.7695 191.484 42.4961Z" fill="#22B212"/>
</svg>
