<svg width="40" height="60" viewBox="0 0 40 60" fill="none" xmlns="http://www.w3.org/2000/svg">
<path d="M19.6096 0C8.81239 0 0 8.93944 0 19.8923C0 20.2144 0 20.6171 0 20.9392L0.0793912 22.5499C0.396955 24.2412 1.11147 27.1405 2.69929 31.2478C5.08102 37.2074 9.92387 46.7911 19.689 59.4352C24.2936 52.9924 37.7107 33.5028 38.9016 23.2748V23.1942C39.0603 22.1473 39.1397 21.0198 39.1397 19.8923C39.2191 8.93944 30.4067 0 19.6096 0ZM19.5302 28.7512C14.7667 28.7512 10.8766 24.8049 10.8766 19.9728C10.8766 15.1407 14.7667 11.1944 19.5302 11.1944C24.2936 11.1944 28.1838 15.1407 28.1838 19.9728C28.1838 24.8049 24.2936 28.7512 19.5302 28.7512Z" fill="#22B212"/>
<circle cx="19.5701" cy="19.5701" r="15.2212" fill="white"/>
</svg>
