<svg width="38" height="64" viewBox="0 0 38 64" fill="none" xmlns="http://www.w3.org/2000/svg">
<path d="M6.40037 0.388458H31.2903C34.825 0.388458 37.6906 3.34603 37.6906 6.99434V57.2983C37.6906 60.9466 34.825 63.9041 31.2903 63.9041H6.40037C2.86558 63.9041 0 60.9466 0 57.2983V6.99434C0 3.34603 2.86558 0.388458 6.40037 0.388458ZM19.2009 60.2342C21.5575 60.2342 23.4677 58.2625 23.4677 55.8303C23.4677 53.3981 21.5575 51.4265 19.2009 51.4265C16.8444 51.4265 14.934 53.3981 14.934 55.8303C14.934 58.2625 16.8444 60.2342 19.2009 60.2342ZM13.8298 6.64041C13.2543 6.64041 12.788 7.10695 12.788 7.68243C12.788 8.2579 13.2543 8.72436 13.8298 8.72436H23.8608C24.4363 8.72436 24.9027 8.2579 24.9027 7.68243C24.9027 7.10695 24.4363 6.64041 23.8608 6.64041H13.8298Z" fill="#22B212"/>
<path d="M4.03833 15.1955C4.03833 13.7086 5.24366 12.5033 6.73052 12.5033H30.9602C32.4471 12.5033 33.6524 13.7086 33.6524 15.1955V46.1556C33.6524 47.6425 32.4471 48.8478 30.9602 48.8478H6.73052C5.24366 48.8478 4.03833 47.6425 4.03833 46.1556V15.1955Z" fill="white"/>
</svg>
