<svg width="19" height="12" viewBox="0 0 19 12" fill="none" xmlns="http://www.w3.org/2000/svg">
<path d="M18 5.99986C18 6.12156 17.9207 6.28328 17.8403 6.36185L13.307 10.8358C13.0953 11.039 12.7524 11.0625 12.5058 10.8563C12.2852 10.6718 12.2797 10.3122 12.4836 10.112L16.1226 6.52631H1.56663C1.25356 6.52631 1 6.29061 1 6.00003C1 5.70926 1.25377 5.47375 1.56663 5.47375H16.1226L12.4836 1.8881C12.2797 1.68783 12.2941 1.33701 12.5058 1.14391C12.7291 0.939972 13.0987 0.958144 13.307 1.16447L17.8403 5.6382C17.9735 5.75954 17.9978 5.87647 18 6.00001V5.99986Z" fill="white" stroke="white"/>
</svg>
