<svg width="65" height="65" viewBox="0 0 65 65" fill="none" xmlns="http://www.w3.org/2000/svg">
<path d="M46.8612 49.6879C37.1215 57.5746 22.7444 56.0638 14.8571 46.3234C6.96991 36.5831 8.48125 22.2066 18.2216 14.3194C27.962 6.43212 42.3142 7.91357 50.2257 17.6838C58.1371 27.4541 56.6016 41.8006 46.8612 49.6879ZM20.2432 16.816C11.8733 23.5935 10.5756 35.9323 17.3536 44.3029C24.1317 52.6735 36.47 53.9706 44.8406 47.1925C53.2112 40.4145 54.5083 28.0762 47.7302 19.7056C40.9521 11.335 28.6138 10.0379 20.2432 16.816Z" fill="#22B212"/>
<path d="M42.4142 22.9993C42.5343 23.1477 42.5974 23.4232 42.5769 23.5984L41.4664 33.5318C41.4089 33.9887 41.0139 34.356 40.5095 34.3482C40.0583 34.341 39.6964 33.9079 39.7474 33.4622L40.6444 25.4954L22.8919 39.8705C22.51 40.1796 21.968 40.1426 21.6811 39.7882C21.3939 39.4336 21.4708 38.8957 21.8524 38.5867L39.6049 24.2117L31.6257 23.4323C31.1792 23.3895 30.8503 22.9474 30.9178 22.5029C30.9887 22.0336 31.4575 21.6907 31.9153 21.7367L41.8622 22.7159C42.1445 22.7323 42.2897 22.8509 42.4143 22.9994L42.4142 22.9993Z" fill="#22B212" stroke="#22B212" stroke-width="0.607226"/>
</svg>
