<svg width="20" height="31" viewBox="0 0 20 31" fill="none" xmlns="http://www.w3.org/2000/svg">
<path d="M9.89795 0.503662C4.44807 0.503662 0 5.01586 0 10.5443C0 10.7069 0 10.9102 0 11.0728L0.0400728 11.8858C0.200364 12.7394 0.561017 14.2028 1.36247 16.276C2.56465 19.2841 5.00909 24.1215 9.93802 30.5037C12.2622 27.2516 19.0345 17.4142 19.6356 12.2516V12.211C19.7158 11.6825 19.7558 11.1134 19.7558 10.5443C19.7959 5.01586 15.3478 0.503662 9.89795 0.503662ZM9.85788 15.0159C7.45352 15.0159 5.48996 13.024 5.48996 10.585C5.48996 8.14594 7.45352 6.15407 9.85788 6.15407C12.2622 6.15407 14.2258 8.14594 14.2258 10.585C14.2258 13.024 12.2622 15.0159 9.85788 15.0159Z" fill="#22B212"/>
</svg>
