<svg width="152" height="42" viewBox="0 0 152 42" fill="none" xmlns="http://www.w3.org/2000/svg">    <path fill-rule="evenodd" clip-rule="evenodd" d="M41.7109 16.8162L44.5156 24.0235H47.5485L38.4823 0.640335H35.8406L26.7417 24.0235H29.7095L32.4815 16.8162H41.7109ZM37.8952 6.21708C38.0474 6.67366 38.1561 6.98891 38.2214 7.16284L40.8304 14.2072H33.4599L36.1015 7.16284C36.1885 6.90194 36.2863 6.58669 36.3951 6.21708C36.5255 5.84747 36.6451 5.44525 36.7538 5.01042C36.8842 4.55384 37.0038 4.10814 37.1125 3.6733C37.1995 3.9342 37.3082 4.31468 37.4386 4.81474C37.5908 5.29306 37.743 5.7605 37.8952 6.21708ZM3.41638 3.60808L11.0803 24.0235H13.4937L21.2554 3.64069H21.3859C21.3641 4.09726 21.3315 4.66255 21.2881 5.33654C21.2446 5.98879 21.212 6.6954 21.1902 7.45636C21.1685 8.19557 21.1576 8.94566 21.1576 9.70662V24.0235H24.0601V0.738171H19.7553L12.4501 19.8165H12.3196L5.14484 0.738171H0.807373V24.0235H3.51421V9.9023C3.51421 9.07611 3.50334 8.27167 3.4816 7.48897C3.45986 6.68453 3.42725 5.94531 3.38376 5.27132C3.36202 4.59732 3.32941 4.04291 3.28593 3.60808H3.41638ZM56.6693 0.738171C58.6044 0.738171 60.1915 0.988201 61.4308 1.48826C62.6918 1.96658 63.6267 2.69493 64.2355 3.6733C64.8442 4.65168 65.1486 5.88008 65.1486 7.35852C65.1486 8.59779 64.9203 9.63053 64.4638 10.4567C64.0072 11.2829 63.4202 11.946 62.7027 12.4461C62.0069 12.9244 61.2677 13.3049 60.485 13.5875L66.8771 24.0235H63.4528L57.8108 14.4028H53.1798V24.0235H50.2447V0.738171H56.6693ZM56.5063 3.28195H53.1798V11.9243H56.6693C57.9304 11.9243 58.9631 11.7612 59.7675 11.4351C60.572 11.0872 61.159 10.5872 61.5286 9.93491C61.92 9.28266 62.1156 8.46734 62.1156 7.48897C62.1156 6.46711 61.9091 5.6518 61.496 5.04303C61.1047 4.43426 60.4959 3.98856 59.6697 3.70591C58.8435 3.42327 57.7891 3.28195 56.5063 3.28195ZM68.1839 24.0235H76.5979V22.3277L73.8585 21.708V3.08628L76.5979 2.43402V0.738171H68.1839V2.43402L70.9233 3.08628V21.708L68.1839 22.3277V24.0235ZM87.9754 24.0235H85.0402V3.31456H77.7676V0.738171H95.2153V3.31456H87.9754V24.0235ZM96.3784 24.0235H104.792V22.3277L102.053 21.708V3.08628L104.792 2.43402V0.738171H96.3784V2.43402L99.1179 3.08628V21.708L96.3784 22.3277V24.0235ZM119.072 24.0235L111.408 3.60808H111.278C111.322 4.04291 111.354 4.59732 111.376 5.27132C111.419 5.94531 111.452 6.68453 111.474 7.48897C111.495 8.27167 111.506 9.07611 111.506 9.9023V24.0235H108.799V0.738171H113.137L120.312 19.8165H120.442L127.747 0.738171H132.052V24.0235H129.15V9.70662C129.15 8.94566 129.161 8.19557 129.182 7.45636C129.204 6.6954 129.237 5.98879 129.28 5.33654C129.324 4.66255 129.356 4.09726 129.378 3.64069H129.248L121.486 24.0235H119.072ZM137.897 24.0235H150.91V21.4471H140.832V13.1309H150.323V10.5872H140.832V3.31456H150.91V0.738171H137.897V24.0235ZM27.6772 37.9096C27.6772 38.642 27.4998 39.2656 27.1451 39.7805C26.7903 40.284 26.2811 40.6731 25.6174 40.9477C24.9652 41.2223 24.1928 41.3597 23.3002 41.3597C22.8425 41.3597 22.4019 41.3368 21.9785 41.291C21.5666 41.2452 21.189 41.1823 20.8457 41.1022C20.5024 41.0107 20.1992 40.9019 19.936 40.7761V39.2999C20.3479 39.483 20.8571 39.6489 21.4636 39.7977C22.0815 39.9465 22.7166 40.0208 23.3689 40.0208C23.9753 40.0208 24.4846 39.9407 24.8965 39.7805C25.3085 39.6203 25.6174 39.3915 25.8234 39.094C26.0294 38.7964 26.1323 38.4474 26.1323 38.0469C26.1323 37.6464 26.0465 37.3088 25.8749 37.0342C25.7032 36.7596 25.4057 36.5078 24.9823 36.279C24.5704 36.0387 23.9925 35.7869 23.2487 35.5237C22.7223 35.3292 22.2589 35.1232 21.8584 34.9058C21.4693 34.677 21.1432 34.4195 20.88 34.1334C20.6168 33.8473 20.4166 33.5212 20.2793 33.155C20.1534 32.7889 20.0904 32.3655 20.0904 31.8849C20.0904 31.2326 20.2564 30.6776 20.5882 30.2199C20.9201 29.7507 21.3778 29.3903 21.9614 29.1385C22.5564 28.8868 23.2373 28.7609 24.004 28.7609C24.6791 28.7609 25.297 28.8239 25.8577 28.9497C26.4184 29.0756 26.9276 29.2415 27.3854 29.4475L26.9048 30.7692C26.4814 30.5861 26.0179 30.4316 25.5144 30.3057C25.0224 30.1799 24.5074 30.1169 23.9696 30.1169C23.4547 30.1169 23.0256 30.1913 22.6823 30.3401C22.339 30.4888 22.0815 30.7005 21.9099 30.9751C21.7382 31.2383 21.6524 31.5473 21.6524 31.902C21.6524 32.314 21.7382 32.6573 21.9099 32.9319C22.0815 33.2065 22.3619 33.4526 22.7509 33.67C23.14 33.8874 23.6664 34.122 24.3301 34.3737C25.051 34.6369 25.6575 34.923 26.1495 35.2319C26.653 35.5295 27.0306 35.8899 27.2824 36.3133C27.5456 36.7367 27.6772 37.2688 27.6772 37.9096ZM6.91267 29.3274C6.26042 29.0642 5.42508 28.9326 4.40665 28.9326H1.02525V41.188H2.57005V36.1245H5.00741L7.97687 41.188H9.77914L6.4149 35.6954C6.82685 35.5466 7.21591 35.3464 7.58209 35.0946C7.9597 34.8314 8.26867 34.4824 8.50897 34.0476C8.74927 33.6128 8.86942 33.0692 8.86942 32.417C8.86942 31.6388 8.70922 30.9923 8.38882 30.4774C8.06841 29.9624 7.57636 29.5791 6.91267 29.3274ZM2.57005 30.2714H4.32083C4.99597 30.2714 5.55095 30.3458 5.98579 30.4945C6.42062 30.6433 6.74102 30.8779 6.947 31.1983C7.16442 31.5187 7.27312 31.9478 7.27312 32.4856C7.27312 33.0006 7.17014 33.4297 6.96416 33.773C6.76963 34.1162 6.46067 34.3794 6.03728 34.5625C5.61389 34.7342 5.07035 34.82 4.40665 34.82H2.57005V30.2714ZM11.4453 41.188H18.2939V39.832H12.9901V35.4551H17.985V34.1162H12.9901V30.2886H18.2939V28.9326H11.4453V41.188ZM29.8884 41.188H36.7371V39.832H31.4332V35.4551H36.4281V34.1162H31.4332V30.2886H36.7371V28.9326H29.8884V41.188ZM46.8583 41.188L45.3822 37.3947H40.5246L39.0657 41.188H37.5037L42.2926 28.8811H43.6829L48.4546 41.188H46.8583ZM43.5456 32.314C43.5113 32.2224 43.4541 32.0565 43.374 31.8162C43.2938 31.5759 43.2138 31.3299 43.1337 31.0781C43.065 30.8149 43.0078 30.6147 42.962 30.4774C42.9048 30.7062 42.8419 30.9408 42.7732 31.1811C42.716 31.41 42.653 31.6217 42.5844 31.8162C42.5272 32.0107 42.4757 32.1767 42.4299 32.314L41.0396 36.0215H44.9188L43.5456 32.314ZM55.7611 29.3274C55.1088 29.0642 54.2735 28.9326 53.2551 28.9326H49.8737V41.188H51.4185V36.1245H53.8558L56.8253 41.188H58.6276L55.2633 35.6954C55.6753 35.5466 56.0643 35.3464 56.4305 35.0946C56.8081 34.8314 57.1171 34.4824 57.3574 34.0476C57.5977 33.6128 57.7178 33.0692 57.7178 32.417C57.7178 31.6388 57.5576 30.9923 57.2372 30.4774C56.9168 29.9624 56.4248 29.5791 55.7611 29.3274ZM51.4185 30.2714H53.1692C53.8444 30.2714 54.3994 30.3458 54.8342 30.4945C55.269 30.6433 55.5894 30.8779 55.7954 31.1983C56.0128 31.5187 56.1215 31.9478 56.1215 32.4856C56.1215 33.0006 56.0186 33.4297 55.8126 33.773C55.618 34.1162 55.3091 34.3794 54.8857 34.5625C54.4623 34.7342 53.9188 34.82 53.2551 34.82H51.4185V30.2714ZM65.5461 30.1169C64.8938 30.1169 64.3045 30.2313 63.7781 30.4602C63.2517 30.6776 62.8055 31.0038 62.4393 31.4386C62.0731 31.862 61.7927 32.3826 61.5982 33.0006C61.4037 33.607 61.3064 34.2936 61.3064 35.0603C61.3064 36.0673 61.4609 36.9427 61.7699 37.6865C62.0903 38.4303 62.5594 39.0024 63.1774 39.4029C63.8067 39.8034 64.5906 40.0037 65.5289 40.0037C66.0667 40.0037 66.5759 39.9579 67.0565 39.8664C67.5371 39.7748 68.0063 39.6604 68.464 39.5231V40.8619C68.0063 41.0335 67.5314 41.1594 67.0394 41.2395C66.5588 41.3196 65.9809 41.3597 65.3057 41.3597C64.0585 41.3597 63.0171 41.1022 62.1818 40.5873C61.3465 40.0723 60.7171 39.34 60.2937 38.3902C59.8818 37.4404 59.6758 36.3247 59.6758 35.0431C59.6758 34.1162 59.8017 33.2695 60.0534 32.5028C60.3166 31.7361 60.6942 31.0724 61.1863 30.5117C61.6898 29.951 62.3077 29.5219 63.04 29.2244C63.7724 28.9154 64.6134 28.7609 65.5632 28.7609C66.1926 28.7609 66.7991 28.8239 67.3827 28.9497C67.9662 29.0756 68.4869 29.253 68.9446 29.4818L68.3267 30.7863C67.9491 30.6147 67.5257 30.4602 67.0565 30.3229C66.5988 30.1856 66.0953 30.1169 65.5461 30.1169ZM78.7084 41.188H80.2532V28.9326H78.7084V34.1162H72.4262V28.9326H70.8814V41.188H72.4262V35.4722H78.7084V41.188ZM95.9247 41.188L94.4485 37.3947H89.591L88.132 41.188H86.57L91.3589 28.8811H92.7492L97.521 41.188H95.9247ZM92.6119 32.314C92.5776 32.2224 92.5204 32.0565 92.4403 31.8162C92.3602 31.5759 92.2801 31.3299 92.2 31.0781C92.1313 30.8149 92.0741 30.6147 92.0283 30.4774C91.9711 30.7062 91.9082 30.9408 91.8395 31.1811C91.7823 31.41 91.7194 31.6217 91.6507 31.8162C91.5935 32.0107 91.542 32.1767 91.4962 32.314L90.1059 36.0215H93.9851L92.6119 32.314ZM108.165 34.717H103.926V36.0902H106.621V39.729C106.415 39.7748 106.191 39.8206 105.951 39.8664C105.722 39.9121 105.465 39.9522 105.179 39.9865C104.904 40.0094 104.584 40.0208 104.218 40.0208C103.119 40.0208 102.232 39.8149 101.557 39.4029C100.882 38.9795 100.384 38.3959 100.064 37.6521C99.7548 36.8969 99.6003 36.0329 99.6003 35.0603C99.6003 34.0419 99.7834 33.1665 100.15 32.4341C100.516 31.6903 101.048 31.1182 101.746 30.7177C102.444 30.3172 103.279 30.1169 104.252 30.1169C104.835 30.1169 105.396 30.1856 105.934 30.3229C106.483 30.4602 106.975 30.6261 107.41 30.8207L107.994 29.4818C107.467 29.253 106.895 29.0756 106.277 28.9497C105.671 28.8239 105.024 28.7609 104.338 28.7609C102.999 28.7609 101.855 29.0241 100.905 29.5505C99.9665 30.0654 99.2456 30.7921 98.7421 31.7304C98.2386 32.6687 97.9868 33.7787 97.9868 35.0603C97.9868 36.3534 98.21 37.4748 98.6562 38.4245C99.114 39.3629 99.7776 40.0895 100.647 40.6044C101.517 41.1079 102.587 41.3597 103.857 41.3597C104.715 41.3597 105.482 41.3082 106.157 41.2052C106.832 41.1022 107.502 40.942 108.165 40.7246V34.717ZM117.684 41.188H110.835V28.9326H117.684V30.2886H112.38V34.1162H117.375V35.4551H112.38V39.832H117.684V41.188ZM128.028 41.188H129.83V28.9326H128.389V35.8499C128.389 36.1245 128.394 36.422 128.406 36.7424C128.417 37.0628 128.429 37.3775 128.44 37.6865C128.452 37.984 128.463 38.2586 128.474 38.5104C128.486 38.7507 128.497 38.9395 128.509 39.0768H128.44L121.9 28.9326H120.115V41.188H121.54V34.3394C121.54 34.0304 121.534 33.7215 121.523 33.4125C121.511 33.1035 121.5 32.806 121.488 32.5199C121.477 32.2224 121.46 31.9478 121.437 31.6961C121.426 31.4443 121.414 31.2154 121.403 31.0095H121.471L128.028 41.188ZM138.151 30.1169C137.499 30.1169 136.91 30.2313 136.383 30.4602C135.857 30.6776 135.411 31.0038 135.044 31.4386C134.678 31.862 134.398 32.3826 134.203 33.0006C134.009 33.607 133.912 34.2936 133.912 35.0603C133.912 36.0673 134.066 36.9427 134.375 37.6865C134.695 38.4303 135.165 39.0024 135.783 39.4029C136.412 39.8034 137.196 40.0037 138.134 40.0037C138.672 40.0037 139.181 39.9579 139.662 39.8664C140.142 39.7748 140.611 39.6604 141.069 39.5231V40.8619C140.611 41.0335 140.137 41.1594 139.645 41.2395C139.164 41.3196 138.586 41.3597 137.911 41.3597C136.664 41.3597 135.622 41.1022 134.787 40.5873C133.952 40.0723 133.322 39.34 132.899 38.3902C132.487 37.4404 132.281 36.3247 132.281 35.0431C132.281 34.1162 132.407 33.2695 132.659 32.5028C132.922 31.7361 133.299 31.0724 133.791 30.5117C134.295 29.951 134.913 29.5219 135.645 29.2244C136.378 28.9154 137.219 28.7609 138.168 28.7609C138.798 28.7609 139.404 28.8239 139.988 28.9497C140.571 29.0756 141.092 29.253 141.55 29.4818L140.932 30.7863C140.554 30.6147 140.131 30.4602 139.662 30.3229C139.204 30.1856 138.7 30.1169 138.151 30.1169ZM149.872 28.9326L146.679 34.9573L143.504 28.9326H141.822L145.907 36.5021V41.188H147.452V36.4335L151.537 28.9326H149.872Z" fill="#EDC100"/></svg>