<svg width="28" height="22" viewBox="0 0 28 22" fill="none" xmlns="http://www.w3.org/2000/svg">
<path d="M14.6507 10.9456L26.5894 1.18675C25.9969 0.743503 25.2762 0.503662 24.5353 0.503662H3.45798C2.71739 0.503662 1.99637 0.74351 1.40381 1.18675L13.3493 10.9456C13.5329 11.0955 13.7627 11.1772 13.9999 11.1772C14.237 11.1772 14.4668 11.0955 14.6504 10.9456H14.6507Z" fill="#22B212"/>
<path d="M15.9553 12.5303C15.4043 12.9805 14.7141 13.2265 14.0019 13.2265C13.2898 13.2265 12.5995 12.9805 12.0486 12.5303L0.191777 2.83972C0.0656764 3.19985 0.000715334 3.5783 0 3.95963V18.055C0.000955307 18.9694 0.365646 19.8458 1.01382 20.4925C1.6622 21.139 2.54109 21.5026 3.458 21.5036H24.542C25.4589 21.5027 26.3377 21.139 26.9862 20.4925C27.6344 19.8459 27.999 18.9694 28 18.055V3.95963C27.9993 3.57831 27.9343 3.19983 27.8082 2.83972L15.9553 12.5303Z" fill="#22B212"/>
</svg>
