<svg width="19" height="33" viewBox="0 0 19 33" fill="none" xmlns="http://www.w3.org/2000/svg">
<path d="M3.22645 0.503662H15.7735C17.5554 0.503662 19 1.99372 19 3.83179V29.1755C19 31.0136 17.5554 32.5037 15.7735 32.5037H3.22645C1.44455 32.5037 0 31.0136 0 29.1755V3.83179C0 1.99372 1.44455 0.503662 3.22645 0.503662ZM9.67928 30.6547C10.8672 30.6547 11.8302 29.6613 11.8302 28.436C11.8302 27.2106 10.8672 26.2173 9.67928 26.2173C8.49134 26.2173 7.52831 27.2106 7.52831 28.436C7.52831 29.6613 8.49134 30.6547 9.67928 30.6547ZM6.97167 3.65347C6.68156 3.65347 6.44647 3.88852 6.44647 4.17846C6.44647 4.46839 6.68156 4.7034 6.97167 4.7034H12.0283C12.3184 4.7034 12.5535 4.46839 12.5535 4.17846C12.5535 3.88852 12.3184 3.65347 12.0283 3.65347H6.97167Z" fill="#22B212"/>
<path d="M2.03564 7.96792C2.03564 7.21839 2.64326 6.61078 3.39279 6.61078H15.6071C16.3566 6.61078 16.9642 7.21839 16.9642 7.96792V23.5751C16.9642 24.3246 16.3566 24.9322 15.6071 24.9322H3.39279C2.64326 24.9322 2.03564 24.3246 2.03564 23.5751V7.96792Z" fill="white"/>
</svg>
