<svg width="195" height="47" fill="none" xmlns="http://www.w3.org/2000/svg"><path d="M13.758 3.855L9.118 18h-3.74L11.719.937h2.38l-.34 2.918zM17.613 18L12.961 3.855 12.586.938h2.402L21.363 18h-3.75zm-.21-6.352v2.754H8.39v-2.754h9.011zM26.296 0v18H22.91V0h3.387zm6.164 7.758v15.117h-3.375V5.32h3.129l.246 2.438zm8.027 3.762v.246a9.58 9.58 0 01-.328 2.566c-.21.79-.523 1.477-.937 2.063a4.451 4.451 0 01-1.547 1.359c-.61.32-1.313.48-2.11.48-.773 0-1.445-.156-2.015-.468a4.199 4.199 0 01-1.442-1.313 7.597 7.597 0 01-.925-1.98 15.63 15.63 0 01-.54-2.414v-.645c.126-.922.305-1.766.54-2.531.234-.774.543-1.442.925-2.004a4.2 4.2 0 011.43-1.324c.57-.313 1.238-.47 2.004-.47.805 0 1.512.153 2.121.458a4.17 4.17 0 011.547 1.312c.422.57.738 1.25.95 2.04.218.789.327 1.664.327 2.625zm-3.386.246v-.246a7.35 7.35 0 00-.141-1.489 3.859 3.859 0 00-.422-1.207 2.051 2.051 0 00-.75-.797c-.305-.195-.676-.293-1.113-.293-.461 0-.856.075-1.184.223-.32.148-.582.363-.785.645a2.988 2.988 0 00-.457 1.007 6.521 6.521 0 00-.188 1.325v1.629a5.25 5.25 0 00.329 1.558c.18.453.457.813.832 1.078.375.266.867.399 1.476.399.446 0 .82-.098 1.125-.293.305-.203.551-.48.739-.832a3.83 3.83 0 00.41-1.22c.086-.46.129-.956.129-1.487zM45.879 0v18h-3.375V0h3.375zm-.48 11.215h-.926a8.582 8.582 0 01.351-2.438c.227-.75.551-1.398.973-1.945a4.49 4.49 0 011.512-1.289 4.248 4.248 0 011.968-.457c.625 0 1.192.09 1.7.27a3.16 3.16 0 011.324.843c.375.383.664.887.867 1.512.203.625.305 1.383.305 2.273V18h-3.399V9.96c0-.562-.082-1.003-.246-1.323a1.356 1.356 0 00-.691-.692c-.297-.14-.664-.21-1.102-.21-.484 0-.898.09-1.242.269-.336.18-.605.43-.809.75-.203.312-.351.68-.445 1.101-.094.422-.14.875-.14 1.36zm17.484 3.926V9.492c0-.406-.067-.754-.2-1.043a1.483 1.483 0 00-.62-.691c-.274-.164-.63-.246-1.067-.246-.375 0-.7.066-.973.199a1.408 1.408 0 00-.632.55 1.522 1.522 0 00-.223.833h-3.375c0-.54.125-1.051.375-1.535.25-.485.613-.91 1.09-1.278a5.382 5.382 0 011.699-.879c.664-.21 1.406-.316 2.227-.316.984 0 1.859.164 2.625.492.765.328 1.367.82 1.804 1.477.446.656.668 1.476.668 2.46v5.426c0 .696.043 1.266.13 1.711.085.438.21.82.374 1.149V18h-3.41c-.164-.344-.29-.773-.375-1.29a10.626 10.626 0 01-.117-1.57zm.445-4.864l.024 1.91h-1.887a3.92 3.92 0 00-1.16.153 2.16 2.16 0 00-.809.433c-.21.18-.367.391-.469.633-.093.242-.14.508-.14.797 0 .29.066.55.199.785.133.227.324.407.574.54.25.124.543.187.88.187.507 0 .948-.102 1.323-.305s.664-.453.867-.75c.211-.297.32-.578.329-.844l.89 1.43c-.125.32-.297.652-.515.996a4.65 4.65 0 01-.809.973 4.17 4.17 0 01-1.184.738c-.46.188-1.007.281-1.64.281-.805 0-1.535-.16-2.192-.48a3.994 3.994 0 01-1.547-1.348 3.544 3.544 0 01-.562-1.968c0-.665.125-1.254.375-1.77s.617-.95 1.102-1.3c.492-.36 1.105-.63 1.84-.81.734-.187 1.585-.28 2.554-.28h1.957zM88.957.937V18h-3.516L78.586 6.562V18H75.07V.937h3.516l6.867 11.45V.937h3.504zm9.691 14.204V9.492c0-.406-.066-.754-.199-1.043a1.483 1.483 0 00-.62-.691c-.274-.164-.63-.246-1.067-.246-.375 0-.7.066-.973.199a1.408 1.408 0 00-.633.55 1.522 1.522 0 00-.222.833h-3.375c0-.54.125-1.051.375-1.535.25-.485.613-.91 1.09-1.278a5.382 5.382 0 011.699-.879c.664-.21 1.406-.316 2.226-.316.985 0 1.86.164 2.625.492.766.328 1.367.82 1.805 1.477.445.656.668 1.476.668 2.46v5.426c0 .696.043 1.266.129 1.711.086.438.211.82.375 1.149V18h-3.41c-.164-.344-.29-.773-.375-1.29a10.626 10.626 0 01-.118-1.57zm.446-4.864l.023 1.91h-1.886c-.446 0-.833.051-1.16.153a2.16 2.16 0 00-.81.433c-.21.18-.367.391-.468.633-.094.242-.14.508-.14.797 0 .29.066.55.199.785.132.227.324.407.574.54.25.124.543.187.879.187.507 0 .949-.102 1.324-.305.375-.203.664-.453.867-.75.211-.297.32-.578.328-.844l.89 1.43c-.124.32-.296.652-.515.996-.21.344-.48.668-.808.973a4.169 4.169 0 01-1.184.738c-.46.188-1.008.281-1.64.281-.805 0-1.536-.16-2.192-.48a3.994 3.994 0 01-1.547-1.348c-.375-.578-.562-1.234-.562-1.968 0-.665.125-1.254.375-1.77s.617-.95 1.101-1.3c.492-.36 1.106-.63 1.84-.81.734-.187 1.586-.28 2.555-.28h1.957zm9.679 5.262l2.813-10.219h3.527L110.836 18h-2.133l.07-2.46zM106.84 5.32l2.824 10.23.059 2.45h-2.145l-4.277-12.68h3.539zm13.348 0V18h-3.387V5.32h3.387zm-3.598-3.304c0-.493.172-.899.515-1.22.344-.32.805-.48 1.383-.48.571 0 1.028.16 1.371.48.352.321.528.727.528 1.22 0 .492-.176.898-.528 1.218-.343.32-.8.48-1.371.48-.578 0-1.039-.16-1.383-.48-.343-.32-.515-.726-.515-1.218zm14.414 3.304h3.058v12.258c0 1.156-.257 2.137-.773 2.942-.508.812-1.219 1.425-2.133 1.84-.914.421-1.976.632-3.187.632a7.37 7.37 0 01-1.688-.21 6.743 6.743 0 01-1.687-.657A4.446 4.446 0 01123.258 21l1.488-1.992c.391.453.844.805 1.359 1.055a3.773 3.773 0 001.711.386c.61 0 1.125-.113 1.547-.34a2.25 2.25 0 00.973-.972c.226-.422.34-.934.34-1.535V8.25l.328-2.93zm-8.531 6.492v-.246c0-.968.117-1.847.351-2.636.242-.797.582-1.48 1.02-2.051a4.63 4.63 0 011.617-1.324c.633-.313 1.348-.47 2.144-.47.844 0 1.551.157 2.122.47.57.312 1.039.758 1.406 1.336.367.57.652 1.246.855 2.027.211.773.375 1.621.492 2.543V12a14.928 14.928 0 01-.527 2.46 7.541 7.541 0 01-.926 1.993 4.09 4.09 0 01-1.429 1.313c-.563.312-1.235.468-2.016.468-.781 0-1.488-.16-2.121-.48a4.745 4.745 0 01-1.606-1.348 6.425 6.425 0 01-1.031-2.039 8.87 8.87 0 01-.351-2.555zm3.375-.246v.246c0 .524.05 1.012.152 1.465.102.454.258.856.469 1.207.219.344.488.614.808.809.328.188.715.281 1.161.281.617 0 1.121-.129 1.511-.386.391-.266.684-.63.879-1.09.195-.461.309-.993.34-1.594v-1.535a5.21 5.21 0 00-.199-1.324 3.17 3.17 0 00-.492-1.02 2.129 2.129 0 00-.821-.656c-.336-.157-.734-.235-1.195-.235-.445 0-.832.102-1.16.305a2.49 2.49 0 00-.809.809c-.211.343-.371.75-.48 1.218-.11.461-.164.961-.164 1.5zm17.683 3.575V9.492c0-.406-.066-.754-.199-1.043a1.485 1.485 0 00-.621-.691c-.273-.164-.629-.246-1.066-.246-.375 0-.7.066-.973.199a1.408 1.408 0 00-.633.55 1.526 1.526 0 00-.223.833h-3.375c0-.54.125-1.051.375-1.535.25-.485.614-.91 1.09-1.278a5.388 5.388 0 011.699-.879c.665-.21 1.407-.316 2.227-.316.984 0 1.859.164 2.625.492.766.328 1.367.82 1.805 1.477.445.656.668 1.476.668 2.46v5.426c0 .696.043 1.266.129 1.711.086.438.211.82.375 1.149V18h-3.411c-.164-.344-.289-.773-.375-1.29a10.64 10.64 0 01-.117-1.57zm.446-4.864l.023 1.91h-1.887c-.445 0-.832.051-1.16.153a2.15 2.15 0 00-.808.433 1.67 1.67 0 00-.469.633 2.185 2.185 0 00-.141.797c0 .29.067.55.199.785.133.227.325.407.575.54.25.124.543.187.879.187.507 0 .949-.102 1.324-.305.375-.203.664-.453.867-.75.211-.297.32-.578.328-.844l.891 1.43c-.125.32-.297.652-.516.996-.211.344-.48.668-.809.973a4.164 4.164 0 01-1.183.738c-.461.188-1.008.281-1.641.281-.804 0-1.535-.16-2.191-.48a3.992 3.992 0 01-1.547-1.348 3.538 3.538 0 01-.563-1.968c0-.665.125-1.254.375-1.77s.618-.95 1.102-1.3c.492-.36 1.105-.63 1.84-.81.734-.187 1.586-.28 2.555-.28h1.957zm11.765-4.957v2.39h-7.383V5.32h7.383zm-5.554-3.129h3.374V14.18c0 .367.047.648.141.843.102.196.25.332.445.41.196.07.442.106.739.106.211 0 .398-.008.562-.023a8.22 8.22 0 00.434-.07l.012 2.484a6.37 6.37 0 01-.938.222 6.952 6.952 0 01-1.113.082c-.742 0-1.391-.12-1.946-.363a2.682 2.682 0 01-1.265-1.195c-.297-.547-.445-1.266-.445-2.156V2.19zm11.039 3.13V18h-3.387V5.32h3.387zm-3.598-3.305c0-.493.172-.899.516-1.22.343-.32.804-.48 1.382-.48.571 0 1.028.16 1.371.48.352.321.528.727.528 1.22 0 .492-.176.898-.528 1.218-.343.32-.8.48-1.371.48-.578 0-1.039-.16-1.382-.48-.344-.32-.516-.726-.516-1.218zm5.848 9.773v-.246c0-.93.132-1.785.398-2.566a5.94 5.94 0 011.16-2.051 5.202 5.202 0 011.875-1.348c.742-.328 1.594-.492 2.555-.492.961 0 1.816.164 2.566.492.75.32 1.379.77 1.887 1.348a5.84 5.84 0 011.172 2.05c.265.782.398 1.637.398 2.567v.246a8.01 8.01 0 01-.398 2.566 5.98 5.98 0 01-1.172 2.051 5.2 5.2 0 01-1.875 1.348c-.742.32-1.594.48-2.555.48-.961 0-1.816-.16-2.566-.48a5.316 5.316 0 01-1.887-1.348 6.087 6.087 0 01-1.16-2.05 7.987 7.987 0 01-.398-2.567zm3.375-.246v.246c0 .531.046 1.027.14 1.488.094.461.242.868.446 1.22.21.343.484.612.82.808.336.195.746.293 1.23.293.469 0 .871-.098 1.207-.293.336-.196.606-.465.809-.809.203-.351.351-.758.445-1.219a6.88 6.88 0 00.153-1.488v-.246c0-.516-.051-1-.153-1.453a3.84 3.84 0 00-.457-1.219 2.267 2.267 0 00-.808-.844c-.336-.203-.743-.304-1.219-.304-.477 0-.883.101-1.219.304a2.389 2.389 0 00-.808.844 4.006 4.006 0 00-.446 1.219 7.15 7.15 0 00-.14 1.453zm14.015-3.516V18h-3.375V5.32h3.164l.211 2.707zm-.492 3.188h-.914c0-.938.121-1.781.363-2.531.242-.758.582-1.403 1.02-1.934.437-.54.957-.95 1.558-1.23.61-.29 1.289-.434 2.039-.434.594 0 1.137.086 1.629.258.492.172.914.445 1.266.82.359.375.633.871.82 1.488.196.618.293 1.371.293 2.262V18h-3.398V9.902c0-.562-.078-1-.235-1.312a1.313 1.313 0 00-.691-.656c-.297-.133-.664-.2-1.102-.2-.453 0-.847.09-1.183.27-.328.18-.602.43-.82.75a3.53 3.53 0 00-.481 1.101 5.419 5.419 0 00-.164 1.36z" fill="#100CAA"/><path d="M2.484 28.938h2.977l4.383 12.527 4.383-12.528h2.976L11.04 46H8.65L2.483 28.937zm-1.605 0h2.965l.539 12.21V46H.879V28.937zm14.965 0h2.976V46h-3.515v-4.852l.539-12.21zM28.535 43.14v-5.649c0-.406-.066-.754-.2-1.043a1.483 1.483 0 00-.62-.691c-.274-.164-.63-.246-1.067-.246-.375 0-.699.066-.972.199a1.407 1.407 0 00-.633.55 1.522 1.522 0 00-.223.833h-3.375c0-.54.125-1.051.375-1.535.25-.485.614-.91 1.09-1.278a5.381 5.381 0 011.7-.879c.663-.21 1.406-.316 2.226-.316.984 0 1.86.164 2.625.492.766.328 1.367.82 1.805 1.477.445.656.668 1.476.668 2.46v5.426c0 .696.043 1.266.128 1.711.086.438.211.82.376 1.149v.2h-3.41c-.165-.344-.29-.773-.376-1.29a10.626 10.626 0 01-.117-1.57zm.445-4.864l.024 1.91h-1.887c-.445 0-.832.051-1.16.153a2.16 2.16 0 00-.809.433c-.21.18-.367.391-.468.633-.094.242-.14.508-.14.797 0 .29.066.55.198.785.133.227.325.407.575.54.25.124.543.187.878.187.508 0 .95-.102 1.325-.305s.664-.453.867-.75c.21-.297.32-.578.328-.844l.89 1.43c-.124.32-.296.652-.515.996-.211.344-.48.668-.809.973a4.17 4.17 0 01-1.183.738c-.461.188-1.008.281-1.64.281-.806 0-1.536-.16-2.192-.48a3.995 3.995 0 01-1.547-1.348 3.537 3.537 0 01-.563-1.968c0-.665.125-1.254.375-1.77s.617-.95 1.102-1.3c.492-.36 1.105-.63 1.84-.81.734-.187 1.586-.28 2.554-.28h1.957zm8.93-2.191V46h-3.375V33.32h3.176l.2 2.766zm3.82-2.848l-.058 3.13a8.164 8.164 0 00-.598-.06 6.087 6.087 0 00-.62-.035c-.477 0-.892.063-1.243.188a2.215 2.215 0 00-.867.527c-.227.235-.399.52-.516.856-.11.336-.172.718-.187 1.148l-.68-.21c0-.821.082-1.575.246-2.262.164-.696.402-1.301.715-1.817.32-.516.71-.914 1.172-1.195.46-.281.988-.422 1.582-.422.187 0 .379.016.574.047.195.023.355.058.48.105zm5.157.082V46H43.5V33.32h3.387zm-3.598-3.304c0-.493.172-.899.516-1.22.343-.32.804-.48 1.383-.48.57 0 1.027.16 1.37.48.352.321.528.727.528 1.22 0 .492-.176.898-.527 1.218-.344.32-.801.48-1.371.48-.579 0-1.04-.16-1.383-.48-.344-.32-.516-.726-.516-1.218zm12.598 3.304v2.39h-7.383v-2.39h7.383zm-5.555-3.129h3.375v11.99c0 .367.047.648.14.843.102.196.25.332.446.41.195.07.441.106.738.106.211 0 .399-.008.563-.023a7.2 7.2 0 00.433-.07l.012 2.484a6.37 6.37 0 01-.937.222 6.954 6.954 0 01-1.114.082c-.742 0-1.39-.12-1.945-.363a2.68 2.68 0 01-1.266-1.195c-.297-.547-.445-1.266-.445-2.157V30.192zm11.04 3.13V46h-3.388V33.32h3.387zm-3.599-3.305c0-.493.172-.899.516-1.22.344-.32.805-.48 1.383-.48.57 0 1.027.16 1.371.48.352.321.527.727.527 1.22 0 .492-.175.898-.527 1.218-.344.32-.8.48-1.371.48-.578 0-1.04-.16-1.383-.48-.344-.32-.516-.726-.516-1.218zm9.762 5.93V46h-3.387V33.32h3.176l.211 2.625zm-.469 3.269h-.937c0-.883.105-1.696.316-2.438.22-.75.536-1.398.95-1.945a4.36 4.36 0 011.558-1.289c.617-.305 1.332-.457 2.145-.457.562 0 1.078.086 1.546.258a2.97 2.97 0 011.208.785c.343.352.609.812.796 1.383.188.562.282 1.238.282 2.027V46h-3.375v-8.086c0-.578-.078-1.023-.235-1.336a1.33 1.33 0 00-.668-.656c-.28-.125-.62-.188-1.02-.188-.437 0-.82.09-1.148.27-.32.18-.586.43-.796.75-.211.312-.368.68-.47 1.102a5.794 5.794 0 00-.152 1.359zm7.547-.387l-1.207.152c0-.828.102-1.597.305-2.308a5.83 5.83 0 01.926-1.875c.414-.54.925-.957 1.535-1.254.61-.305 1.312-.457 2.11-.457.609 0 1.163.09 1.663.27.5.171.926.449 1.278.831.359.376.633.868.82 1.477.195.61.293 1.355.293 2.238V46h-3.387v-8.098c0-.586-.078-1.03-.234-1.336-.149-.312-.367-.527-.656-.644-.282-.125-.618-.188-1.008-.188-.407 0-.762.082-1.067.246a2.123 2.123 0 00-.761.657c-.204.281-.356.61-.457.984a4.52 4.52 0 00-.153 1.207zm16.172 7.406c-.984 0-1.867-.156-2.648-.468a5.816 5.816 0 01-1.993-1.325 5.886 5.886 0 01-1.242-1.957 6.59 6.59 0 01-.433-2.39v-.469c0-.96.137-1.84.41-2.637a6.2 6.2 0 011.172-2.074 5.147 5.147 0 011.875-1.348c.734-.32 1.562-.48 2.484-.48.899 0 1.696.148 2.39.445a4.685 4.685 0 011.747 1.266 5.465 5.465 0 011.078 1.969c.242.757.363 1.601.363 2.53v1.407H85.91v-2.25h6.762v-.258c0-.468-.086-.886-.258-1.254a1.99 1.99 0 00-.75-.89c-.336-.219-.766-.328-1.289-.328-.445 0-.828.097-1.148.293-.32.195-.583.468-.786.82a4.467 4.467 0 00-.445 1.242c-.094.469-.14.984-.14 1.547v.469c0 .508.07.976.21 1.406.149.43.356.8.621 1.113.274.313.602.555.985.727.39.172.832.258 1.324.258a4.11 4.11 0 001.7-.352 3.678 3.678 0 001.37-1.09l1.641 1.782c-.266.382-.629.75-1.09 1.101-.453.352-1 .64-1.64.867-.641.219-1.371.328-2.192.328zm22.195-4.699c0-.304-.046-.578-.14-.82a1.55 1.55 0 00-.492-.68c-.243-.21-.582-.418-1.02-.62a14.386 14.386 0 00-1.699-.634 21.426 21.426 0 01-2.203-.843 9.033 9.033 0 01-1.828-1.09 4.911 4.911 0 01-1.243-1.465c-.296-.555-.445-1.2-.445-1.934 0-.71.156-1.355.469-1.933a4.45 4.45 0 011.312-1.5c.563-.422 1.227-.746 1.993-.973a9.015 9.015 0 012.543-.34c1.257 0 2.355.227 3.293.68.937.453 1.664 1.074 2.179 1.863.524.79.785 1.692.785 2.707h-3.492c0-.5-.105-.937-.316-1.312a2.14 2.14 0 00-.938-.903c-.414-.218-.937-.328-1.57-.328-.609 0-1.117.094-1.523.281-.407.18-.711.426-.915.739a1.817 1.817 0 00-.304 1.03c0 .29.07.552.211.786.148.234.367.453.656.656.289.203.645.395 1.066.575.422.18.911.355 1.465.527.93.281 1.746.598 2.449.95.711.35 1.305.745 1.782 1.183.476.437.836.933 1.078 1.488.242.555.363 1.184.363 1.887 0 .742-.144 1.406-.434 1.992a4.098 4.098 0 01-1.253 1.488c-.547.406-1.2.715-1.957.926-.758.21-1.606.316-2.543.316a9.646 9.646 0 01-2.497-.328 7.584 7.584 0 01-2.238-1.02 5.145 5.145 0 01-1.594-1.734c-.398-.703-.597-1.535-.597-2.496h3.527c0 .532.082.98.246 1.348.164.367.395.664.692.89.304.227.664.391 1.078.493.422.101.883.152 1.383.152.609 0 1.109-.086 1.5-.258.398-.172.691-.41.879-.715.195-.304.292-.648.292-1.03zm11.532 4.7c-.985 0-1.867-.157-2.649-.47a5.818 5.818 0 01-1.992-1.324 5.884 5.884 0 01-1.242-1.957 6.591 6.591 0 01-.434-2.39v-.469c0-.96.137-1.84.41-2.637a6.224 6.224 0 011.172-2.074 5.153 5.153 0 011.875-1.348c.735-.32 1.563-.48 2.485-.48.898 0 1.695.148 2.39.445a4.673 4.673 0 011.746 1.266c.477.547.836 1.203 1.079 1.969.242.757.363 1.601.363 2.53v1.407h-10.078v-2.25h6.761v-.258c0-.468-.086-.886-.257-1.254a1.99 1.99 0 00-.75-.89c-.336-.219-.766-.328-1.289-.328-.446 0-.829.097-1.149.293a2.26 2.26 0 00-.785.82 4.457 4.457 0 00-.445 1.242 7.882 7.882 0 00-.141 1.547v.469c0 .508.07.976.211 1.406.148.43.355.8.621 1.113.274.313.602.555.984.727.391.172.832.258 1.325.258.609 0 1.175-.117 1.699-.352a3.682 3.682 0 001.371-1.09l1.641 1.782c-.266.382-.629.75-1.09 1.101-.453.352-1 .64-1.641.867-.641.219-1.371.328-2.191.328zm10.5-10.15V46h-3.375V33.32h3.175l.2 2.766zm3.82-2.847l-.059 3.13a8.157 8.157 0 00-.597-.06 6.101 6.101 0 00-.621-.035c-.477 0-.891.063-1.243.188a2.225 2.225 0 00-.867.527c-.226.235-.398.52-.515.856-.11.336-.172.718-.188 1.148l-.68-.21c0-.821.083-1.575.247-2.262.164-.696.402-1.301.714-1.817.321-.516.711-.914 1.172-1.195.461-.281.989-.422 1.582-.422.188 0 .379.016.575.047.195.023.355.058.48.105zm6.117 10.301l2.813-10.219h3.527L147.012 46h-2.133l.07-2.46zm-1.933-10.219l2.824 10.23.058 2.45h-2.144l-4.277-12.68h3.539zm13.347 0V46h-3.386V33.32h3.386zm-3.597-3.304c0-.493.172-.899.515-1.22.344-.32.805-.48 1.383-.48.57 0 1.027.16 1.371.48.352.321.527.727.527 1.22 0 .492-.175.898-.527 1.218-.344.32-.801.48-1.371.48-.578 0-1.039-.16-1.383-.48-.343-.32-.515-.726-.515-1.218zm11.625 13.582a2.48 2.48 0 001.101-.235c.32-.164.57-.39.75-.68a1.98 1.98 0 00.293-1.042h3.176c-.008.89-.246 1.683-.715 2.379a4.92 4.92 0 01-1.887 1.628c-.789.391-1.671.586-2.648.586-.984 0-1.844-.164-2.578-.492a5.037 5.037 0 01-1.817-1.36 5.957 5.957 0 01-1.089-2.038 8.4 8.4 0 01-.364-2.508v-.34c0-.898.121-1.734.364-2.508a5.817 5.817 0 011.089-2.039 4.978 4.978 0 011.817-1.37c.726-.329 1.578-.493 2.555-.493 1.039 0 1.949.2 2.73.598a4.457 4.457 0 011.852 1.71c.453.735.683 1.606.691 2.614h-3.176a2.644 2.644 0 00-.269-1.149 1.946 1.946 0 00-.727-.82c-.312-.21-.699-.316-1.16-.316-.492 0-.895.105-1.207.316a2.018 2.018 0 00-.727.844 4.19 4.19 0 00-.363 1.207 10.19 10.19 0 00-.094 1.406v.34c0 .492.032.965.094 1.418.063.453.18.855.352 1.207.179.352.425.629.738.832.312.203.719.305 1.219.305zm13.113 2.636c-.984 0-1.867-.156-2.649-.468a5.818 5.818 0 01-1.992-1.325 5.884 5.884 0 01-1.242-1.957 6.59 6.59 0 01-.433-2.39v-.469c0-.96.136-1.84.41-2.637a6.19 6.19 0 011.172-2.074 5.136 5.136 0 011.875-1.348c.734-.32 1.562-.48 2.484-.48.898 0 1.695.148 2.391.445a4.689 4.689 0 011.746 1.266 5.467 5.467 0 011.078 1.969c.242.757.363 1.601.363 2.53v1.407h-10.078v-2.25h6.762v-.258c0-.468-.086-.886-.258-1.254a1.99 1.99 0 00-.75-.89c-.336-.219-.766-.328-1.289-.328-.446 0-.828.097-1.149.293a2.26 2.26 0 00-.785.82 4.457 4.457 0 00-.445 1.242 7.882 7.882 0 00-.141 1.547v.469c0 .508.071.976.211 1.406.149.43.356.8.621 1.113.274.313.602.555.985.727.39.172.832.258 1.324.258.609 0 1.176-.117 1.699-.352a3.682 3.682 0 001.371-1.09l1.641 1.782c-.266.382-.629.75-1.09 1.101-.453.352-1 .64-1.641.867-.64.219-1.371.328-2.191.328zm13.98-3.738c0-.242-.07-.46-.211-.656-.14-.196-.402-.375-.785-.54-.375-.171-.918-.327-1.629-.468-.64-.14-1.238-.316-1.793-.527a6.228 6.228 0 01-1.429-.785 3.414 3.414 0 01-.938-1.079 3.005 3.005 0 01-.34-1.441c0-.531.114-1.031.34-1.5.235-.469.567-.883.996-1.242a4.722 4.722 0 011.594-.856c.633-.21 1.344-.316 2.133-.316 1.101 0 2.047.176 2.836.527.797.352 1.406.836 1.828 1.453.43.61.644 1.305.644 2.086h-3.375c0-.328-.07-.62-.21-.879a1.395 1.395 0 00-.633-.62c-.282-.157-.649-.235-1.102-.235-.375 0-.699.066-.972.2a1.486 1.486 0 00-.633.515 1.237 1.237 0 00-.211.703c0 .195.039.371.117.527.086.149.223.285.41.41a3.5 3.5 0 00.727.352c.304.102.679.195 1.125.281.914.188 1.73.434 2.449.739.719.296 1.289.703 1.711 1.218.422.508.633 1.176.633 2.004 0 .563-.125 1.078-.375 1.547-.25.469-.61.879-1.079 1.23-.468.344-1.031.614-1.687.81-.648.187-1.379.28-2.191.28-1.18 0-2.18-.21-3-.632-.813-.422-1.43-.957-1.852-1.606-.414-.656-.621-1.328-.621-2.016h3.199c.016.461.133.833.352 1.114.226.281.511.484.855.61.352.124.731.187 1.137.187.437 0 .801-.059 1.09-.176.289-.125.508-.29.656-.492a1.19 1.19 0 00.234-.727z" fill="#22B212"/></svg>