<svg width="40" height="60" fill="none" xmlns="http://www.w3.org/2000/svg"><path d="M19.61 0C8.812 0 0 8.94 0 19.892v1.047l.08 1.61c.317 1.692 1.031 4.591 2.62 8.699 2.381 5.96 7.224 15.543 16.989 28.187 4.605-6.443 18.022-25.932 19.213-36.16v-.08c.158-1.048.238-2.175.238-3.303C39.22 8.94 30.407 0 19.61 0zm-.08 28.751c-4.763 0-8.653-3.946-8.653-8.778 0-4.832 3.89-8.779 8.653-8.779 4.764 0 8.654 3.947 8.654 8.779s-3.89 8.778-8.654 8.778z" fill="#22B212"/><circle cx="19.57" cy="19.57" r="15.221" fill="#fff"/></svg>