<svg width="38" height="64" fill="none" xmlns="http://www.w3.org/2000/svg"><path d="M6.4.388h24.89c3.535 0 6.4 2.958 6.4 6.606v50.304c0 3.649-2.865 6.606-6.4 6.606H6.4c-3.534 0-6.4-2.957-6.4-6.606V6.994C0 3.346 2.866.388 6.4.388zm12.8 59.846c2.358 0 4.268-1.971 4.268-4.404 0-2.432-1.91-4.404-4.267-4.404s-4.267 1.972-4.267 4.404c0 2.433 1.91 4.404 4.267 4.404zM13.83 6.64a1.042 1.042 0 000 2.084h10.03a1.042 1.042 0 100-2.084H13.83z" fill="#22B212"/><path d="M4.038 15.195a2.692 2.692 0 012.693-2.692h24.23a2.692 2.692 0 012.691 2.692v30.96a2.692 2.692 0 01-2.692 2.693H6.73a2.692 2.692 0 01-2.692-2.692v-30.96z" fill="#fff"/></svg>