<svg width="182" height="36" viewBox="0 0 182 36" fill="none" xmlns="http://www.w3.org/2000/svg">
<path d="M6.81737 2.57439L3.0416 14.0829H0L5.15832 0.200231H7.09388L6.81737 2.57439ZM9.95432 14.0829L6.16901 2.57439L5.86389 0.200231H7.81852L13.0054 14.0829H9.95432ZM9.78269 8.91503V11.1557H2.45044V8.91503H9.78269Z" fill="#25417E"/>
<path d="M23.2172 11.8517V14.0829H16.2282V11.8517H23.2172ZM17.1531 0.200231V14.0829H14.2926V0.200231H17.1531Z" fill="#25417E"/>
<path d="M30.2634 9.13433H26.726V6.90319H30.2634C30.8101 6.90319 31.255 6.81419 31.5983 6.63621C31.9415 6.45187 32.1926 6.19761 32.3515 5.87343C32.5104 5.54925 32.5899 5.18375 32.5899 4.77693C32.5899 4.36375 32.5104 3.97918 32.3515 3.62322C32.1926 3.26725 31.9415 2.98121 31.5983 2.76509C31.255 2.54897 30.8101 2.44091 30.2634 2.44091H27.7176V14.0829H24.8572V0.200231H30.2634C31.3504 0.200231 32.2816 0.397283 33.0571 0.791387C33.839 1.17914 34.4365 1.71626 34.8496 2.40277C35.2628 3.08927 35.4694 3.8743 35.4694 4.75786C35.4694 5.65413 35.2628 6.42962 34.8496 7.08435C34.4365 7.73907 33.839 8.24441 33.0571 8.60038C32.2816 8.95634 31.3504 9.13433 30.2634 9.13433Z" fill="#25417E"/>
<path d="M46.7014 5.85436V8.0855H39.4549V5.85436H46.7014ZM40.3035 0.200231V14.0829H37.4431V0.200231H40.3035ZM48.7418 0.200231V14.0829H45.8909V0.200231H48.7418Z" fill="#25417E"/>
<path d="M57.0466 2.57439L53.2709 14.0829H50.2293L55.3876 0.200231H57.3231L57.0466 2.57439ZM60.1836 14.0829L56.3983 2.57439L56.0931 0.200231H58.0478L63.2347 14.0829H60.1836ZM60.0119 8.91503V11.1557H52.6797V8.91503H60.0119Z" fill="#25417E"/>
<path d="M80.6834 0.200231V14.0829H77.8229L72.2451 4.77693V14.0829H69.3846V0.200231H72.2451L77.8325 9.51572V0.200231H80.6834Z" fill="#25417E"/>
<path d="M88.9882 2.57439L85.2124 14.0829H82.1708L87.3291 0.200231H89.2647L88.9882 2.57439ZM92.1251 14.0829L88.3398 2.57439L88.0347 0.200231H89.9893L95.1762 14.0829H92.1251ZM91.9535 8.91503V11.1557H84.6212V8.91503H91.9535Z" fill="#25417E"/>
<path d="M100.687 11.1843L103.958 0.200231H107.142L102.308 14.0829H100.211L100.687 11.1843ZM97.6744 0.200231L100.935 11.1843L101.431 14.0829H99.3143L94.5088 0.200231H97.6744Z" fill="#25417E"/>
<path d="M111.481 0.200231V14.0829H108.63V0.200231H111.481Z" fill="#25417E"/>
<path d="M125.163 6.82691V12.3285C124.947 12.5891 124.613 12.872 124.162 13.1771C123.711 13.4758 123.129 13.7333 122.417 13.9494C121.705 14.1655 120.844 14.2736 119.833 14.2736C118.937 14.2736 118.12 14.1274 117.383 13.835C116.645 13.5362 116.01 13.1008 115.476 12.5287C114.948 11.9566 114.541 11.2574 114.255 10.4311C113.969 9.59835 113.826 8.64805 113.826 7.58016V6.71249C113.826 5.64459 113.963 4.69429 114.236 3.86159C114.516 3.02888 114.913 2.32649 115.428 1.7544C115.943 1.18231 116.556 0.746892 117.268 0.448135C117.98 0.149378 118.772 0 119.643 0C120.85 0 121.842 0.197052 122.617 0.591157C123.393 0.978905 123.984 1.51921 124.391 2.21207C124.804 2.89858 125.058 3.68678 125.154 4.5767H122.379C122.309 4.10631 122.176 3.69632 121.979 3.34671C121.781 2.9971 121.499 2.72377 121.13 2.52672C120.768 2.32967 120.297 2.23114 119.719 2.23114C119.242 2.23114 118.816 2.32967 118.441 2.52672C118.072 2.71741 117.761 3.00028 117.507 3.37531C117.252 3.75035 117.059 4.21438 116.925 4.76739C116.792 5.32041 116.725 5.96242 116.725 6.69342V7.58016C116.725 8.3048 116.795 8.94681 116.935 9.50618C117.074 10.0592 117.281 10.5264 117.554 10.9078C117.834 11.2828 118.177 11.5657 118.584 11.7564C118.991 11.9471 119.465 12.0424 120.005 12.0424C120.456 12.0424 120.831 12.0043 121.13 11.928C121.435 11.8517 121.68 11.7596 121.864 11.6515C122.055 11.5371 122.201 11.429 122.303 11.3273V8.86735H119.69V6.82691H125.163Z" fill="#25417E"/>
<path d="M133.115 2.57439L129.339 14.0829H126.298L131.456 0.200231H133.392L133.115 2.57439ZM136.252 14.0829L132.467 2.57439L132.162 0.200231H134.116L139.303 14.0829H136.252ZM136.08 8.91503V11.1557H128.748V8.91503H136.08Z" fill="#25417E"/>
<path d="M145.615 0.200231V14.0829H142.764V0.200231H145.615ZM149.887 0.200231V2.44091H138.56V0.200231H149.887Z" fill="#25417E"/>
<path d="M154.559 0.200231V14.0829H151.708V0.200231H154.559Z" fill="#25417E"/>
<path d="M168.642 6.81737V7.47527C168.642 8.53046 168.499 9.47758 168.213 10.3166C167.927 11.1557 167.523 11.8708 167.002 12.462C166.481 13.0468 165.858 13.4949 165.133 13.8064C164.415 14.1178 163.617 14.2736 162.74 14.2736C161.869 14.2736 161.071 14.1178 160.347 13.8064C159.628 13.4949 159.005 13.0468 158.478 12.462C157.95 11.8708 157.54 11.1557 157.248 10.3166C156.962 9.47758 156.819 8.53046 156.819 7.47527V6.81737C156.819 5.75583 156.962 4.80871 157.248 3.97601C157.534 3.13694 157.937 2.42184 158.459 1.83068C158.986 1.23952 159.609 0.788209 160.327 0.476739C161.052 0.16527 161.85 0.00953479 162.721 0.00953479C163.598 0.00953479 164.396 0.16527 165.114 0.476739C165.839 0.788209 166.461 1.23952 166.983 1.83068C167.51 2.42184 167.917 3.13694 168.203 3.97601C168.496 4.80871 168.642 5.75583 168.642 6.81737ZM165.753 7.47527V6.7983C165.753 6.06095 165.686 5.41258 165.552 4.85321C165.419 4.29383 165.222 3.82345 164.961 3.44206C164.701 3.06067 164.383 2.77462 164.008 2.58393C163.633 2.38687 163.204 2.28835 162.721 2.28835C162.238 2.28835 161.809 2.38687 161.433 2.58393C161.065 2.77462 160.75 3.06067 160.49 3.44206C160.235 3.82345 160.041 4.29383 159.908 4.85321C159.774 5.41258 159.708 6.06095 159.708 6.7983V7.47527C159.708 8.20627 159.774 8.85464 159.908 9.42037C160.041 9.97974 160.238 10.4533 160.499 10.8411C160.76 11.2224 161.078 11.5117 161.453 11.7087C161.828 11.9058 162.257 12.0043 162.74 12.0043C163.223 12.0043 163.652 11.9058 164.027 11.7087C164.402 11.5117 164.717 11.2224 164.971 10.8411C165.225 10.4533 165.419 9.97974 165.552 9.42037C165.686 8.85464 165.753 8.20627 165.753 7.47527Z" fill="#25417E"/>
<path d="M182 0.200231V14.0829H179.14L173.562 4.77693V14.0829H170.701V0.200231H173.562L179.149 9.51572V0.200231H182Z" fill="#25417E"/>
<path d="M0.187112 25.402C0.187112 25.0078 0.15233 24.5324 0.0827637 23.9759L1.38712 23.802L1.57843 24.8976C1.89147 24.6657 2.19872 24.4628 2.50018 24.2889C2.80163 24.115 3.12627 23.9643 3.4741 23.8368C3.82193 23.7092 4.17555 23.6454 4.53498 23.6454C5.11469 23.6454 5.57267 23.7498 5.9089 23.9585C6.24513 24.1556 6.49441 24.4976 6.65673 24.9846C7.1321 24.6484 7.62486 24.3411 8.13501 24.0628C8.65675 23.7846 9.19588 23.6454 9.75241 23.6454C10.1814 23.6454 10.5466 23.7034 10.8481 23.8194C11.1495 23.9237 11.393 24.1034 11.5785 24.3585C11.764 24.6136 11.8974 24.9498 11.9785 25.3672C12.0597 25.7846 12.1003 26.3063 12.1003 26.9324V32.5673H10.7089V27.089C10.7089 26.7411 10.7031 26.4339 10.6915 26.1672C10.68 25.8889 10.6394 25.6571 10.5698 25.4715C10.5002 25.2744 10.3843 25.1237 10.222 25.0194C10.0713 24.915 9.85096 24.8628 9.5611 24.8628C9.29444 24.8628 9.03936 24.9034 8.79588 24.9846C8.56399 25.0542 8.32051 25.1585 8.06544 25.2976C7.81037 25.4368 7.41616 25.7208 6.88282 26.1498V32.5673H5.49151V27.089C5.49151 26.7411 5.48571 26.4339 5.47411 26.1672C5.46252 25.8889 5.42194 25.6571 5.35237 25.4715C5.28281 25.2744 5.16686 25.1237 5.00454 25.0194C4.85382 24.915 4.63353 24.8628 4.34367 24.8628C4.04222 24.8628 3.72917 24.9266 3.40453 25.0542C3.07989 25.1817 2.77264 25.3324 2.48278 25.5063C2.19293 25.6802 1.89147 25.8831 1.57843 26.115V32.5673H0.187112V25.402Z" fill="#22B212"/>
<path d="M22.9029 28.5498C22.671 28.5614 22.4508 28.573 22.2421 28.5846C22.0334 28.5962 21.8247 28.6136 21.616 28.6368C21.4189 28.6484 21.2391 28.6658 21.0768 28.689C20.242 28.7933 19.6507 28.9788 19.3029 29.2455C18.9551 29.5006 18.7812 29.8716 18.7812 30.3585C18.7812 30.7643 18.9029 31.0716 19.1464 31.2803C19.4014 31.4774 19.7319 31.5759 20.1377 31.5759C20.6942 31.5759 21.187 31.4832 21.616 31.2977C22.0565 31.1006 22.4855 30.8455 22.9029 30.5325V28.5498ZM22.8855 31.7499C22.3406 32.0629 21.8305 32.318 21.3551 32.5151C20.8913 32.7006 20.387 32.7934 19.842 32.7934C19.0652 32.7934 18.4449 32.6078 17.9811 32.2368C17.529 31.8542 17.3029 31.2281 17.3029 30.3585C17.3029 29.9064 17.4188 29.5122 17.6507 29.1759C17.8826 28.8397 18.184 28.5614 18.5551 28.3411C18.9377 28.1093 19.3667 27.9295 19.842 27.802C20.3174 27.6745 20.8044 27.5933 21.3029 27.5585C21.5116 27.5353 21.7841 27.5179 22.1203 27.5063C22.4565 27.4832 22.7174 27.4658 22.9029 27.4542C22.9029 27.0484 22.8913 26.689 22.8681 26.3759C22.845 26.0513 22.7754 25.7788 22.6594 25.5585C22.5435 25.3266 22.3696 25.1527 22.1377 25.0368C21.9174 24.9208 21.5986 24.8628 21.1812 24.8628C20.8449 24.8628 20.5203 24.886 20.2073 24.9324C19.8942 24.9672 19.6159 25.0078 19.3725 25.0542C19.0826 25.1121 18.8159 25.1759 18.5725 25.2455L18.2942 24.0455C18.5841 23.9759 18.8971 23.9121 19.2333 23.8541C19.5232 23.7962 19.8594 23.7498 20.242 23.715C20.6246 23.6686 21.0362 23.6454 21.4768 23.6454C22.0681 23.6454 22.5435 23.7324 22.9029 23.9063C23.2739 24.0802 23.558 24.3179 23.7551 24.6194C23.9638 24.9092 24.1029 25.2455 24.1725 25.6281C24.2537 25.9991 24.2942 26.3933 24.2942 26.8107V30.9846C24.2942 31.147 24.2942 31.3209 24.2942 31.5064C24.3058 31.6803 24.3174 31.8542 24.329 32.0281C24.3522 32.202 24.3754 32.3818 24.3986 32.5673L23.0595 32.7064L22.8855 31.7499Z" fill="#22B212"/>
<path d="M30.2417 25.2281C30.2417 24.9614 30.2127 24.544 30.1548 23.9759L31.4417 23.802L31.5809 25.0715H31.5982C31.8069 24.8049 32.0098 24.573 32.2069 24.3759C32.404 24.1788 32.607 24.0107 32.8156 23.8715C33.0359 23.7208 33.2446 23.6454 33.4417 23.6454C33.7084 23.6339 34.0794 23.6628 34.5548 23.7324L34.2417 25.0715C33.8591 25.002 33.5925 24.973 33.4417 24.9846C33.2446 24.9846 33.0359 25.0773 32.8156 25.2629C32.5954 25.4484 32.4041 25.6455 32.2417 25.8542C32.033 26.1092 31.8301 26.3991 31.633 26.7237V32.5673H30.2417V25.2281Z" fill="#22B212"/>
<path d="M39.562 23.802L40.9534 23.6454V32.5673H39.562V23.802ZM39.3359 21.315C39.3359 21.0483 39.4229 20.828 39.5968 20.6541C39.7823 20.4686 40.0084 20.3759 40.2751 20.3759C40.5533 20.3759 40.7852 20.4686 40.9707 20.6541C41.1678 20.828 41.2664 21.0483 41.2664 21.315C41.2664 21.5817 41.1678 21.8078 40.9707 21.9933C40.7852 22.1672 40.5533 22.2541 40.2751 22.2541C40.0084 22.2541 39.7823 22.1672 39.5968 21.9933C39.4229 21.8078 39.3359 21.5817 39.3359 21.315Z" fill="#22B212"/>
<path d="M48.9644 21.2106V23.8194H51.4862V24.9498H48.9644V29.5933C48.9644 29.9759 48.9702 30.2948 48.9818 30.5499C49.005 30.8049 49.0456 31.0078 49.1036 31.1586C49.1615 31.3093 49.2427 31.4194 49.347 31.489C49.4514 31.547 49.5847 31.5759 49.747 31.5759C50.1876 31.5644 50.6978 31.402 51.2775 31.089L51.6949 32.1499C51.3123 32.4049 50.9528 32.5731 50.6166 32.6542C50.292 32.747 49.9673 32.7934 49.6427 32.7934C48.8775 32.7934 48.3383 32.5789 48.0253 32.1499C47.7238 31.7093 47.5731 30.9846 47.5731 29.9759V24.9498H45.9731V23.8194H47.5731V21.3846L48.9644 21.2106Z" fill="#22B212"/>
<path d="M56.7429 23.802L58.1342 23.6454V32.5673H56.7429V23.802ZM56.5168 21.315C56.5168 21.0483 56.6038 20.828 56.7777 20.6541C56.9632 20.4686 57.1893 20.3759 57.4559 20.3759C57.7342 20.3759 57.9661 20.4686 58.1516 20.6541C58.3487 20.828 58.4472 21.0483 58.4472 21.315C58.4472 21.5817 58.3487 21.8078 58.1516 21.9933C57.9661 22.1672 57.7342 22.2541 57.4559 22.2541C57.1893 22.2541 56.9632 22.1672 56.7777 21.9933C56.6038 21.8078 56.5168 21.5817 56.5168 21.315Z" fill="#22B212"/>
<path d="M64.1279 25.402C64.1279 25.0078 64.0931 24.5324 64.0235 23.9759L65.3279 23.802L65.5192 24.8976C65.8322 24.6657 66.1395 24.4628 66.4409 24.2889C66.7424 24.115 67.067 23.9643 67.4149 23.8368C67.7627 23.7092 68.1163 23.6454 68.4757 23.6454C69.0554 23.6454 69.5134 23.7498 69.8497 23.9585C70.1859 24.1556 70.4352 24.4976 70.5975 24.9846C71.0729 24.6484 71.5656 24.3411 72.0758 24.0628C72.5975 23.7846 73.1366 23.6454 73.6932 23.6454C74.1222 23.6454 74.4874 23.7034 74.7888 23.8194C75.0903 23.9237 75.3338 24.1034 75.5193 24.3585C75.7048 24.6136 75.8381 24.9498 75.9193 25.3672C76.0004 25.7846 76.041 26.3063 76.041 26.9324V32.5673H74.6497V27.089C74.6497 26.7411 74.6439 26.4339 74.6323 26.1672C74.6207 25.8889 74.5801 25.6571 74.5106 25.4715C74.441 25.2744 74.3251 25.1237 74.1627 25.0194C74.012 24.915 73.7917 24.8628 73.5019 24.8628C73.2352 24.8628 72.9801 24.9034 72.7366 24.9846C72.5047 25.0542 72.2613 25.1585 72.0062 25.2976C71.7511 25.4368 71.3569 25.7208 70.8236 26.1498V32.5673H69.4323V27.089C69.4323 26.7411 69.4265 26.4339 69.4149 26.1672C69.4033 25.8889 69.3627 25.6571 69.2931 25.4715C69.2236 25.2744 69.1076 25.1237 68.9453 25.0194C68.7946 24.915 68.5743 24.8628 68.2844 24.8628C67.983 24.8628 67.6699 24.9266 67.3453 25.0542C67.0206 25.1817 66.7134 25.3324 66.4235 25.5063C66.1337 25.6802 65.8322 25.8831 65.5192 26.115V32.5673H64.1279V25.402Z" fill="#22B212"/>
<path d="M88.4437 32.3586C88.177 32.4397 87.8988 32.5093 87.6089 32.5673C87.3306 32.6252 87.0176 32.6774 86.6698 32.7238C86.3335 32.7702 85.9799 32.7934 85.6089 32.7934C85.0292 32.7934 84.49 32.7122 83.9915 32.5499C83.4929 32.3876 83.0581 32.1267 82.6871 31.7673C82.3161 31.4078 82.0204 30.9441 81.8002 30.3759C81.5915 29.7962 81.4871 29.089 81.4871 28.2542C81.4871 27.5006 81.5915 26.8397 81.8002 26.2716C82.0089 25.6918 82.2929 25.2107 82.6523 24.8281C83.0234 24.4339 83.4524 24.1382 83.9393 23.9411C84.4379 23.744 84.977 23.6454 85.5567 23.6454C86.1248 23.6454 86.6176 23.7556 87.035 23.9759C87.4524 24.1962 87.7944 24.4976 88.0611 24.8802C88.3393 25.2513 88.5422 25.6918 88.6698 26.202C88.8089 26.7005 88.8785 27.2281 88.8785 27.7846L88.6176 28.5498H83.0002C83.0002 28.9093 83.0465 29.2687 83.1393 29.6281C83.2321 29.9875 83.3886 30.3122 83.6089 30.602C83.8408 30.8919 84.1364 31.1296 84.4958 31.3151C84.8668 31.489 85.3248 31.5759 85.8698 31.5759C86.2176 31.5759 86.5364 31.5586 86.8263 31.5238C87.1161 31.4774 87.3654 31.431 87.5741 31.3846C87.7944 31.3267 87.9973 31.2629 88.1828 31.1933L88.4437 32.3586ZM87.435 27.4368C87.435 27.3556 87.4176 27.1759 87.3828 26.8976C87.348 26.6194 87.2669 26.3295 87.1393 26.0281C87.0118 25.7266 86.8147 25.46 86.548 25.2281C86.2814 24.9846 85.9277 24.8628 85.4871 24.8628C85.0002 24.8628 84.6002 24.9672 84.2871 25.1759C83.9741 25.373 83.7248 25.6107 83.5393 25.8889C83.3538 26.1672 83.2263 26.4513 83.1567 26.7411C83.0871 27.031 83.0523 27.2629 83.0523 27.4368H87.435Z" fill="#22B212"/>
<path d="M106.433 25.2455C105.946 25.0947 105.511 24.9962 105.129 24.9498C104.758 24.8918 104.416 24.8628 104.103 24.8628C103.697 24.8628 103.355 24.9614 103.076 25.1585C102.81 25.3556 102.676 25.6107 102.676 25.9237C102.688 26.202 102.81 26.4397 103.042 26.6368C103.274 26.8339 103.54 27.0136 103.842 27.1759C104.155 27.3266 104.497 27.4948 104.868 27.6803C105.25 27.8658 105.604 28.0745 105.929 28.3064C106.265 28.5382 106.537 28.8165 106.746 29.1411C106.955 29.4658 107.065 29.8542 107.076 30.3064C107.065 30.7933 106.955 31.1991 106.746 31.5238C106.549 31.8368 106.288 32.0919 105.963 32.289C105.65 32.4745 105.308 32.602 104.937 32.6716C104.566 32.7528 104.218 32.7934 103.894 32.7934C103.476 32.7934 103.042 32.7702 102.589 32.7238C102.149 32.6774 101.674 32.5789 101.163 32.4281L101.424 31.1759C101.946 31.3151 102.421 31.4194 102.85 31.489C103.279 31.547 103.633 31.5759 103.911 31.5759C104.12 31.5759 104.323 31.5528 104.52 31.5064C104.729 31.46 104.914 31.3962 105.076 31.3151C105.239 31.2223 105.366 31.1064 105.459 30.9672C105.563 30.8281 105.616 30.6716 105.616 30.4977C105.604 30.173 105.494 29.9006 105.285 29.6803C105.076 29.4484 104.804 29.2455 104.468 29.0716C104.143 28.8861 103.789 28.7064 103.407 28.5324C103.036 28.3469 102.682 28.1382 102.346 27.9064C102.021 27.6629 101.749 27.3788 101.529 27.0542C101.308 26.7179 101.198 26.3063 101.198 25.8194C101.198 25.4715 101.285 25.1643 101.459 24.8976C101.645 24.6194 101.876 24.3933 102.155 24.2194C102.445 24.0339 102.758 23.8947 103.094 23.802C103.442 23.6976 103.778 23.6454 104.103 23.6454C104.439 23.6454 104.816 23.6744 105.233 23.7324C105.65 23.7788 106.132 23.8715 106.676 24.0107L106.433 25.2455Z" fill="#22B212"/>
<path d="M118.903 32.3586C118.636 32.4397 118.358 32.5093 118.068 32.5673C117.789 32.6252 117.476 32.6774 117.129 32.7238C116.792 32.7702 116.439 32.7934 116.068 32.7934C115.488 32.7934 114.949 32.7122 114.45 32.5499C113.952 32.3876 113.517 32.1267 113.146 31.7673C112.775 31.4078 112.479 30.9441 112.259 30.3759C112.05 29.7962 111.946 29.089 111.946 28.2542C111.946 27.5006 112.05 26.8397 112.259 26.2716C112.468 25.6918 112.752 25.2107 113.111 24.8281C113.482 24.4339 113.911 24.1382 114.398 23.9411C114.897 23.744 115.436 23.6454 116.016 23.6454C116.584 23.6454 117.076 23.7556 117.494 23.9759C117.911 24.1962 118.253 24.4976 118.52 24.8802C118.798 25.2513 119.001 25.6918 119.129 26.202C119.268 26.7005 119.337 27.2281 119.337 27.7846L119.076 28.5498H113.459C113.459 28.9093 113.505 29.2687 113.598 29.6281C113.691 29.9875 113.847 30.3122 114.068 30.602C114.3 30.8919 114.595 31.1296 114.955 31.3151C115.326 31.489 115.784 31.5759 116.329 31.5759C116.676 31.5759 116.995 31.5586 117.285 31.5238C117.575 31.4774 117.824 31.431 118.033 31.3846C118.253 31.3267 118.456 31.2629 118.642 31.1933L118.903 32.3586ZM117.894 27.4368C117.894 27.3556 117.876 27.1759 117.842 26.8976C117.807 26.6194 117.726 26.3295 117.598 26.0281C117.471 25.7266 117.274 25.46 117.007 25.2281C116.74 24.9846 116.387 24.8628 115.946 24.8628C115.459 24.8628 115.059 24.9672 114.746 25.1759C114.433 25.373 114.184 25.6107 113.998 25.8889C113.813 26.1672 113.685 26.4513 113.616 26.7411C113.546 27.031 113.511 27.2629 113.511 27.4368H117.894Z" fill="#22B212"/>
<path d="M124.726 25.2281C124.726 24.9614 124.697 24.544 124.639 23.9759L125.926 23.802L126.065 25.0715H126.083C126.291 24.8049 126.494 24.573 126.691 24.3759C126.889 24.1788 127.091 24.0107 127.3 23.8715C127.52 23.7208 127.729 23.6454 127.926 23.6454C128.193 23.6339 128.564 23.6628 129.039 23.7324L128.726 25.0715C128.344 25.002 128.077 24.973 127.926 24.9846C127.729 24.9846 127.52 25.0773 127.3 25.2629C127.08 25.4484 126.889 25.6455 126.726 25.8542C126.518 26.1092 126.315 26.3991 126.118 26.7237V32.5673H124.726V25.2281Z" fill="#22B212"/>
<path d="M132.968 23.8194H134.499L136.62 29.9933L137.003 31.3673H137.02L137.42 29.9933L139.681 23.8194H141.142L137.751 32.5673H136.186L132.968 23.8194Z" fill="#22B212"/>
<path d="M146.034 23.802L147.425 23.6454V32.5673H146.034V23.802ZM145.808 21.315C145.808 21.0483 145.895 20.828 146.068 20.6541C146.254 20.4686 146.48 20.3759 146.747 20.3759C147.025 20.3759 147.257 20.4686 147.442 20.6541C147.64 20.828 147.738 21.0483 147.738 21.315C147.738 21.5817 147.64 21.8078 147.442 21.9933C147.257 22.1672 147.025 22.2541 146.747 22.2541C146.48 22.2541 146.254 22.1672 146.068 21.9933C145.895 21.8078 145.808 21.5817 145.808 21.315Z" fill="#22B212"/>
<path d="M158.827 25.0889C158.63 25.0426 158.358 24.9962 158.01 24.9498C157.662 24.8918 157.309 24.8628 156.949 24.8628C156.427 24.8628 155.998 24.9672 155.662 25.1759C155.338 25.3846 155.082 25.6571 154.897 25.9933C154.711 26.3179 154.584 26.6832 154.514 27.089C154.445 27.4832 154.41 27.8716 154.41 28.2542C154.41 28.8455 154.485 29.3556 154.636 29.7846C154.787 30.202 154.984 30.5441 155.227 30.8107C155.482 31.0774 155.772 31.2745 156.097 31.402C156.422 31.518 156.764 31.5759 157.123 31.5759C157.367 31.5759 157.598 31.5644 157.819 31.5412C158.051 31.5064 158.259 31.4716 158.445 31.4368C158.642 31.3904 158.827 31.3383 159.001 31.2803L159.28 32.4455C159.036 32.5151 158.81 32.5731 158.601 32.6194C158.393 32.6658 158.143 32.7064 157.854 32.7412C157.575 32.776 157.274 32.7934 156.949 32.7934C156.311 32.7934 155.743 32.7122 155.245 32.5499C154.746 32.3876 154.323 32.1267 153.975 31.7673C153.639 31.4078 153.378 30.9383 153.193 30.3585C153.019 29.7788 152.932 29.0716 152.932 28.2368C152.932 27.4252 153.042 26.7295 153.262 26.1498C153.494 25.5585 153.796 25.0831 154.167 24.7237C154.538 24.3527 154.961 24.0802 155.436 23.9063C155.923 23.7324 156.427 23.6454 156.949 23.6454C157.227 23.6454 157.494 23.6628 157.749 23.6976C158.016 23.7208 158.248 23.7498 158.445 23.7846C158.677 23.831 158.897 23.8773 159.106 23.9237L158.827 25.0889Z" fill="#22B212"/>
<path d="M170.737 32.3586C170.471 32.4397 170.192 32.5093 169.902 32.5673C169.624 32.6252 169.311 32.6774 168.963 32.7238C168.627 32.7702 168.273 32.7934 167.902 32.7934C167.323 32.7934 166.784 32.7122 166.285 32.5499C165.786 32.3876 165.352 32.1267 164.981 31.7673C164.61 31.4078 164.314 30.9441 164.094 30.3759C163.885 29.7962 163.781 29.089 163.781 28.2542C163.781 27.5006 163.885 26.8397 164.094 26.2716C164.302 25.6918 164.586 25.2107 164.946 24.8281C165.317 24.4339 165.746 24.1382 166.233 23.9411C166.731 23.744 167.271 23.6454 167.85 23.6454C168.418 23.6454 168.911 23.7556 169.328 23.9759C169.746 24.1962 170.088 24.4976 170.355 24.8802C170.633 25.2513 170.836 25.6918 170.963 26.202C171.102 26.7005 171.172 27.2281 171.172 27.7846L170.911 28.5498H165.294C165.294 28.9093 165.34 29.2687 165.433 29.6281C165.526 29.9875 165.682 30.3122 165.902 30.602C166.134 30.8919 166.43 31.1296 166.789 31.3151C167.16 31.489 167.618 31.5759 168.163 31.5759C168.511 31.5759 168.83 31.5586 169.12 31.5238C169.41 31.4774 169.659 31.431 169.868 31.3846C170.088 31.3267 170.291 31.2629 170.476 31.1933L170.737 32.3586ZM169.728 27.4368C169.728 27.3556 169.711 27.1759 169.676 26.8976C169.642 26.6194 169.56 26.3295 169.433 26.0281C169.305 25.7266 169.108 25.46 168.842 25.2281C168.575 24.9846 168.221 24.8628 167.781 24.8628C167.294 24.8628 166.894 24.9672 166.581 25.1759C166.268 25.373 166.018 25.6107 165.833 25.8889C165.647 26.1672 165.52 26.4513 165.45 26.7411C165.381 27.031 165.346 27.2629 165.346 27.4368H169.728Z" fill="#22B212"/>
<path d="M181.274 25.2455C180.787 25.0947 180.352 24.9962 179.97 24.9498C179.599 24.8918 179.257 24.8628 178.944 24.8628C178.538 24.8628 178.196 24.9614 177.917 25.1585C177.651 25.3556 177.517 25.6107 177.517 25.9237C177.529 26.202 177.651 26.4397 177.883 26.6368C178.115 26.8339 178.381 27.0136 178.683 27.1759C178.996 27.3266 179.338 27.4948 179.709 27.6803C180.091 27.8658 180.445 28.0745 180.77 28.3064C181.106 28.5382 181.378 28.8165 181.587 29.1411C181.796 29.4658 181.906 29.8542 181.917 30.3064C181.906 30.7933 181.796 31.1991 181.587 31.5238C181.39 31.8368 181.129 32.0919 180.804 32.289C180.491 32.4745 180.149 32.602 179.778 32.6716C179.407 32.7528 179.059 32.7934 178.735 32.7934C178.317 32.7934 177.883 32.7702 177.43 32.7238C176.99 32.6774 176.515 32.5789 176.004 32.4281L176.265 31.1759C176.787 31.3151 177.262 31.4194 177.691 31.489C178.12 31.547 178.474 31.5759 178.752 31.5759C178.961 31.5759 179.164 31.5528 179.361 31.5064C179.57 31.46 179.755 31.3962 179.917 31.3151C180.08 31.2223 180.207 31.1064 180.3 30.9672C180.404 30.8281 180.457 30.6716 180.457 30.4977C180.445 30.173 180.335 29.9006 180.126 29.6803C179.917 29.4484 179.645 29.2455 179.309 29.0716C178.984 28.8861 178.63 28.7064 178.248 28.5324C177.877 28.3469 177.523 28.1382 177.187 27.9064C176.862 27.6629 176.59 27.3788 176.37 27.0542C176.149 26.7179 176.039 26.3063 176.039 25.8194C176.039 25.4715 176.126 25.1643 176.3 24.8976C176.486 24.6194 176.717 24.3933 176.996 24.2194C177.286 24.0339 177.599 23.8947 177.935 23.802C178.283 23.6976 178.619 23.6454 178.944 23.6454C179.28 23.6454 179.657 23.6744 180.074 23.7324C180.491 23.7788 180.973 23.8715 181.517 24.0107L181.274 25.2455Z" fill="#22B212"/>
</svg>
